<?xml version="1.0" encoding="UTF-8"?>
<svg version="1.1" xmlns="http://www.w3.org/2000/svg" width="511" height="385">
<path d="M0 0 C168.63 0 337.26 0 511 0 C511 127.05 511 254.1 511 385 C342.37 385 173.74 385 0 385 C0 257.95 0 130.9 0 0 Z " fill="#FEFEFE" transform="translate(0,0)"/>
<path d="M0 0 C1.28594722 0.43510727 2.57241612 0.86867545 3.859375 1.30078125 C34.70800235 11.94694197 64.28298202 32.90909698 84 59 C84.86817766 60.10571374 85.73668371 61.21116968 86.60546875 62.31640625 C112.29879433 95.55691779 125.7271355 139.7066558 120.54443359 181.69042969 C118.8617529 193.03359147 116.90303614 204.19511404 113 215 C113.99 215.33 114.98 215.66 116 216 C117.38671875 217.75 117.38671875 217.75 118.6875 220 C119.12449219 220.721875 119.56148438 221.44375 120.01171875 222.1875 C122.74630056 229.9697091 120.3582861 237.80606531 118.3125 245.5 C118.03921875 246.56025391 117.7659375 247.62050781 117.484375 248.71289062 C115.75801911 255.34129428 113.89881025 261.92068322 111.89794922 268.47094727 C109.71227863 275.72197475 107.9588214 283.08136674 106.23046875 290.453125 C101.28197294 310.98938259 101.28197294 310.98938259 92.625 316.3125 C82.48440193 320.85251088 71.57450093 317.85503998 61.66088867 314.25219727 C59.32292826 313.49985517 57.45939136 312.97841144 55 313 C52.86526378 314.24602169 51.37366292 315.60387503 49.70092773 317.41748047 C45.49317997 321.33231052 40.65211783 321.40194047 35.19287109 321.29394531 C29.05438427 320.72881776 23.22826157 319.04611909 17.3125 317.375 C16.04599609 317.04371094 14.77949219 316.71242188 13.47460938 316.37109375 C5.1433337 314.06289923 -1.52637364 311.55189788 -6.875 304.54296875 C-7.24625 303.76566406 -7.6175 302.98835938 -8 302.1875 C-8.391875 301.41792969 -8.78375 300.64835937 -9.1875 299.85546875 C-11.4126267 292.03543214 -9.47452398 285.15867619 -7.0625 277.625 C-3.92039337 267.35611315 -1.13952661 257.03116695 1.5 246.625 C2.26357175 243.62480845 3.02815784 240.62487588 3.79296875 237.625 C3.97937927 236.8932959 4.16578979 236.1615918 4.35784912 235.40771484 C7.12284573 224.57408471 10.0152931 213.77515937 13 203 C13.20463867 202.25524414 13.40927734 201.51048828 13.62011719 200.74316406 C16.21278731 191.3995972 18.50959026 185.07396662 27.09765625 179.98046875 C34.38055466 176.22685992 41.98461007 178.16379208 49.5 180.125 C50.36206055 180.34438232 51.22412109 180.56376465 52.11230469 180.78979492 C60.33055138 182.95324761 68.10748649 185.85761036 76 189 C76.66 182.73 77.32 176.46 78 170 C76.35 169.34 74.7 168.68 73 168 C66.22520199 162.5471138 64.09323526 155.81699593 63.0625 147.4375 C59.49231229 119.02857044 42.54384305 92.19463207 20.3359375 74.5234375 C-1.78770066 57.53819272 -27.39088803 47.83717942 -55.37597656 47.75976562 C-57.467216 47.75015073 -59.55743157 47.71910708 -61.6484375 47.6875 C-73.95227716 47.58998739 -85.75819505 49.37472814 -97.375 53.625 C-98.07069092 53.87660889 -98.76638184 54.12821777 -99.4831543 54.38745117 C-117.01930834 60.98932054 -131.39993524 71.20974645 -145 84 C-145.60199219 84.53753906 -146.20398438 85.07507813 -146.82421875 85.62890625 C-165.0291724 102.56078622 -174.23413704 127.04707827 -178.51953125 150.890625 C-179.96799804 158.75709503 -182.13405221 163.6409657 -188.28125 168.8984375 C-190 170 -190 170 -193 170 C-192.855625 170.95261719 -192.71125 171.90523437 -192.5625 172.88671875 C-192.376875 174.14097656 -192.19125 175.39523438 -192 176.6875 C-191.814375 177.92886719 -191.62875 179.17023438 -191.4375 180.44921875 C-191.07899589 183.35886371 -190.91057744 186.07700022 -191 189 C-190.13721436 188.54189941 -189.27442871 188.08379883 -188.38549805 187.61181641 C-185.1896756 186.09030348 -182.24840914 185.10285777 -178.83203125 184.2109375 C-177.69185547 183.90929687 -176.55167969 183.60765625 -175.37695312 183.296875 C-174.20068359 182.99265625 -173.02441406 182.6884375 -171.8125 182.375 C-169.46468225 181.75842713 -167.11701852 181.14126739 -164.76953125 180.5234375 C-163.73417236 180.25450684 -162.69881348 179.98557617 -161.63208008 179.70849609 C-159.73767267 179.19856471 -157.86116321 178.62038774 -156 178 C-148.45173579 177.07541342 -142.40015136 178.7772134 -136.27734375 183.26171875 C-130.45909303 188.93116511 -129.03606014 197.4203585 -127 205 C-126.57098389 206.5780542 -126.57098389 206.5780542 -126.13330078 208.18798828 C-124.25528508 215.11104149 -122.41185046 222.0428338 -120.58602905 228.9797821 C-119.03135567 234.88652728 -117.46360467 240.78970563 -115.88989258 246.69140625 C-115.21692542 249.21685434 -114.54616502 251.74289158 -113.87768555 254.26953125 C-112.3625214 259.9811448 -110.81887404 265.67868963 -109.1640625 271.3515625 C-102.76298704 293.40274816 -102.76298704 293.40274816 -105.92578125 301.31640625 C-110.56082462 309.51454485 -116.35664736 312.4943043 -125.1640625 314.953125 C-127.06285156 315.47132813 -127.06285156 315.47132813 -129 316 C-130.48806276 316.4495537 -131.97499928 316.90284798 -133.4609375 317.359375 C-153.45519558 323.39970134 -153.45519558 323.39970134 -162.5 319.1875 C-165.05860387 317.77267879 -167.08668339 316.22248057 -169 314 C-169 313.34 -169 312.68 -169 312 C-169.79881592 312.27263672 -169.79881592 312.27263672 -170.61376953 312.55078125 C-195.48162915 320.89893296 -195.48162915 320.89893296 -205.4921875 317.0390625 C-213.20411418 312.60399844 -216.60369417 305.74232539 -219.03979492 297.46850586 C-219.50542847 295.61044312 -219.50542847 295.61044312 -219.98046875 293.71484375 C-220.1545224 293.02887115 -220.32857605 292.34289856 -220.50790405 291.63613892 C-221.07317477 289.40458302 -221.63061137 287.17116109 -222.1875 284.9375 C-222.9788769 281.78832864 -223.77385457 278.64007736 -224.5703125 275.4921875 C-224.77074661 274.69831131 -224.97118073 273.90443512 -225.1776886 273.08650208 C-226.50668454 267.8528744 -227.90927924 262.64438569 -229.3671875 257.4453125 C-229.74074395 256.10037031 -230.11419985 254.75540019 -230.48754883 253.41040039 C-231.18350227 250.9191621 -231.89094352 248.43109267 -232.61206055 245.94702148 C-237.32815762 228.93215398 -237.32815762 228.93215398 -233.84399414 221.55102539 C-232.5625 219.5625 -232.5625 219.5625 -231.19140625 217.81640625 C-228.82341288 214.20618685 -228.88397458 211.59230658 -229.70703125 207.390625 C-230.06942135 206.00880264 -230.43829211 204.62866895 -230.8125 203.25 C-241.86572075 158.83260386 -232.92636584 113.97742622 -210 75 C-185.54985585 35.79830121 -145.14518251 6.48574185 -100.3125 -4.375 C-67.20204866 -11.95530886 -32.15135527 -11.66341718 0 0 Z " fill="#040504" transform="translate(318,26)"/>
<path d="M0 0 C0.67095703 0.13390137 1.34191406 0.26780273 2.03320312 0.40576172 C13.24647639 2.75849581 23.61179983 7.2822447 34 12 C34.64888184 12.29277832 35.29776367 12.58555664 35.96630859 12.88720703 C49.96416697 19.2893283 62.39656896 27.93778804 74 38 C74.87527344 38.7528125 75.75054687 39.505625 76.65234375 40.28125 C81.87609304 44.86872306 86.63172458 49.59298392 91 55 C92.17369141 56.45212891 92.17369141 56.45212891 93.37109375 57.93359375 C113.28849942 82.99307475 130.30847797 117.20874917 129 150 C125.08347368 150.08714316 121.16719689 150.14043985 117.25 150.1875 C116.13882812 150.21263672 115.02765625 150.23777344 113.8828125 150.26367188 C112.27792969 150.27817383 112.27792969 150.27817383 110.640625 150.29296875 C109.16384277 150.31653442 109.16384277 150.31653442 107.65722656 150.34057617 C104.49253905 149.93495884 103.2014235 149.30007367 101 147 C100.18212891 144.63427734 100.18212891 144.63427734 99.7265625 141.8359375 C99.54520752 140.80476807 99.36385254 139.77359863 99.17700195 138.71118164 C98.99484131 137.6102417 98.81268066 136.50930176 98.625 135.375 C94.30745076 111.9861904 85.41087605 92.25670293 70 74 C69.18660156 73.03449219 68.37320312 72.06898437 67.53515625 71.07421875 C49.88561144 50.91525999 25.79713023 36.8382869 0 30 C-0.97710937 29.73316406 -1.95421875 29.46632812 -2.9609375 29.19140625 C-37.06523939 20.2143293 -73.57293535 26.52244529 -104 43.62109375 C-135.04805838 61.73993899 -157.48142721 90.31212416 -167 125 C-167.92730014 128.86726306 -168.67358287 132.75104064 -169.359375 136.66796875 C-171.41244169 147.3464193 -171.41244169 147.3464193 -175 150 C-177.54370117 150.34057617 -177.54370117 150.34057617 -180.54296875 150.29296875 C-181.61611328 150.28330078 -182.68925781 150.27363281 -183.79492188 150.26367188 C-184.91447266 150.23853516 -186.03402344 150.21339844 -187.1875 150.1875 C-188.31865234 150.17396484 -189.44980469 150.16042969 -190.61523438 150.14648438 C-193.41063317 150.11109958 -196.20507892 150.06172948 -199 150 C-198.43821104 107.71261308 -177.50445188 70.5783834 -148.19921875 41.19140625 C-108.87254336 3.67407723 -52.87513722 -10.68431203 0 0 Z " fill="#FCFCFC" transform="translate(296,34)"/>
<path d="M0 0 C5.86884732 1.07992231 11.6225611 2.7252079 17.36328125 4.3359375 C18.49443359 4.64015625 19.62558594 4.944375 20.79101562 5.2578125 C22.41426758 5.71027344 22.41426758 5.71027344 24.0703125 6.171875 C25.05104736 6.44306152 26.03178223 6.71424805 27.04223633 6.99365234 C29.73501811 8.03197852 31.0046224 8.5221744 32.55078125 10.9609375 C32.82311498 15.92782344 32.20857074 20.105507 30.91772461 24.89233398 C30.65661392 25.87479599 30.65661392 25.87479599 30.39022827 26.87710571 C29.81543697 29.03110408 29.228227 31.18149557 28.640625 33.33203125 C28.23071863 34.85618333 27.82151689 36.38052506 27.41297913 37.90504456 C26.55316094 41.10652991 25.68768774 44.30641025 24.81762695 47.50512695 C23.72312865 51.52911211 22.63814729 55.5555758 21.55682945 59.58312035 C19.10869514 68.70041056 16.62763189 77.80827859 14.11647797 86.90840912 C13.56943429 88.8932583 13.02511676 90.87883799 12.48126221 92.86456299 C11.53937745 96.28715675 10.58186049 99.70486404 9.6171875 103.12109375 C9.21148781 104.60215858 9.21148781 104.60215858 8.79759216 106.11314392 C8.54284622 107.00014481 8.28810028 107.88714569 8.02563477 108.80102539 C7.81133316 109.56330948 7.59703156 110.32559357 7.37623596 111.11097717 C6.55078125 112.9609375 6.55078125 112.9609375 3.55078125 114.9609375 C-0.29811358 115.17087722 -3.76155683 115.14098932 -7.44921875 113.9609375 C-6.856686 108.2162454 -5.75762782 102.91053305 -4.1640625 97.3671875 C-3.71134201 95.74355831 -3.25887573 94.11985821 -2.80664062 92.49609375 C-2.09716085 89.97399016 -1.38442634 87.45288882 -0.66674805 84.93310547 C0.03065064 82.47606104 0.71520351 80.01570231 1.3984375 77.5546875 C1.61403824 76.81174438 1.82963898 76.06880127 2.05177307 75.30334473 C3.41032632 70.37658797 3.89263528 66.07727171 3.55078125 60.9609375 C2.01153485 58.74342842 2.01153485 58.74342842 -0.44921875 57.9609375 C-3.04811658 57.88069092 -3.04811658 57.88069092 -5.44921875 58.9609375 C-8.15981733 61.94703815 -9.13377185 64.70933995 -10.09765625 68.58984375 C-10.37859131 69.69932373 -10.65952637 70.80880371 -10.94897461 71.9519043 C-11.23780518 73.13051025 -11.52663574 74.30911621 -11.82421875 75.5234375 C-12.4371691 77.95841665 -13.05045263 80.39331196 -13.6640625 82.828125 C-13.96425293 84.03178711 -14.26444336 85.23544922 -14.57373047 86.47558594 C-15.80496503 91.37717675 -17.0912508 96.26350333 -18.38671875 101.1484375 C-18.79178072 102.68356366 -19.19674155 104.21871651 -19.6015625 105.75390625 C-20.02115234 107.34138672 -20.02115234 107.34138672 -20.44921875 108.9609375 C-21.88783169 108.87347466 -23.32519383 108.76528402 -24.76171875 108.6484375 C-25.56222656 108.59042969 -26.36273438 108.53242188 -27.1875 108.47265625 C-29.90177179 107.8585464 -30.70613729 107.09245936 -32.44921875 104.9609375 C-33.53822936 96.14012882 -30.55955856 87.70397701 -28.25 79.2734375 C-27.8126501 77.64575557 -27.37624071 76.01782066 -26.9407196 74.38964844 C-25.79367644 70.11257308 -24.63288356 65.83934486 -23.46942139 61.56671143 C-22.53387355 58.12200735 -21.60810116 54.67471479 -20.68290424 51.22721863 C-19.56278724 47.0542207 -18.43827147 42.88241313 -17.3125 38.7109375 C-17.10436487 37.93940338 -16.89622974 37.16786926 -16.68178749 36.37295532 C-15.49046336 31.96536 -14.28312743 27.56261395 -13.0579567 23.16430664 C-12.63852823 21.64615627 -12.22507617 20.12634632 -11.81655502 18.60522461 C-11.18841338 16.26711132 -10.54340347 13.93420001 -9.89526367 11.6015625 C-9.70907376 10.89263855 -9.52288385 10.1837146 -9.33105183 9.45330811 C-7.76207288 3.91356694 -6.19507373 -0.07015939 0 0 Z " fill="#3DB369" transform="translate(355.44921875,218.0390625)"/>
<path d="M0 0 C3.67453443 2.56931022 4.25385769 6.60512266 5.3046875 10.71875 C5.50873199 11.48380859 5.71277649 12.24886719 5.92300415 13.03710938 C6.58335118 15.52229381 7.22922552 18.01099317 7.875 20.5 C8.32915085 22.2196462 8.7842313 23.93904716 9.24023438 25.65820312 C10.30270377 29.67224055 11.3546291 33.68891445 12.40155029 37.70703125 C13.22032153 40.84416516 14.04566468 43.97955062 14.87205505 47.11468506 C15.29097461 48.70599505 15.70850434 50.29767157 16.12464905 51.88970947 C17.33900799 56.52958607 18.58609921 61.15863736 19.87141418 65.77935791 C20.79107731 69.08559827 21.69960463 72.39488358 22.609375 75.70385742 C23.07405905 77.38656228 23.54193965 79.06838803 24.01318359 80.74926758 C24.6796821 83.12755246 25.3349601 85.50869175 25.98828125 87.890625 C26.29255791 88.95987213 26.29255791 88.95987213 26.60298157 90.05072021 C27.80046865 94.46762981 28.31932117 98.42933842 28 103 C26.5 105.375 26.5 105.375 24 107 C21.34317314 107.50287149 18.69342492 107.72080351 16 108 C15.84157623 107.40309357 15.68315247 106.80618713 15.51992798 106.19119263 C13.87334772 99.99261017 12.21729784 93.79661447 10.55566406 87.60205078 C9.93635473 85.28825133 9.31948309 82.97379799 8.70507812 80.65869141 C7.82277509 77.33582433 6.93180238 74.01538855 6.0390625 70.6953125 C5.76502594 69.65569366 5.49098938 68.61607483 5.20864868 67.54495239 C4.94852997 66.58410736 4.68841125 65.62326233 4.42041016 64.63330078 C4.19390778 63.78502716 3.9674054 62.93675354 3.73403931 62.06277466 C3.09999217 59.8139106 3.09999217 59.8139106 1 58 C-2.36465641 57.69412214 -4.93290775 57.46645388 -8 59 C-10.85442377 64.70884753 -6.74675306 74.57622996 -5.25 80.4375 C-4.98558105 81.48703857 -4.72116211 82.53657715 -4.44873047 83.61791992 C-2.62701969 90.76794394 -0.66202394 97.86325987 1.52636719 104.90991211 C2.39452013 107.73427911 3 110.0230093 3 113 C-1.03038366 114.34346122 -4.79838392 114.26676927 -9 114 C-12.35975452 111.67676549 -12.88992811 108.6050799 -13.8671875 104.77734375 C-14.19267578 103.52630859 -14.51816406 102.27527344 -14.85351562 100.98632812 C-15.19408208 99.63673683 -15.53457529 98.28712705 -15.875 96.9375 C-16.23256765 95.55243535 -16.59129805 94.16767037 -16.95117188 92.78320312 C-17.65814332 90.06192797 -18.3612199 87.33969732 -19.06152344 84.61669922 C-20.15675916 80.39588183 -21.31084286 76.19511081 -22.5 72 C-25.11135142 62.71607115 -27.57594072 53.39255686 -30.03881836 44.06835938 C-31.52558638 38.45587239 -33.02142934 32.85151484 -34.66015625 27.28125 C-34.90056641 26.45753906 -35.14097656 25.63382813 -35.38867188 24.78515625 C-35.8204267 23.32094424 -36.26224038 21.85963831 -36.71679688 20.40234375 C-37.93344002 16.26324853 -38.32775806 13.14403412 -37 9 C-32.35055814 4.72536146 -26.13072567 3.83442549 -20.1875 2.25 C-19.02412109 1.92128906 -17.86074219 1.59257812 -16.66210938 1.25390625 C-5.58024401 -1.73573756 -5.58024401 -1.73573756 0 0 Z " fill="#3DB369" transform="translate(171,219)"/>
<path d="M0 0 C7.95645165 0.45902606 16.62683197 2.30507002 23.453125 6.51171875 C26.04386084 10.67913978 24.9647068 14.34111896 24 19 C22.59994615 24.68836692 21.00139573 30.31043985 19.375 35.9375 C18.4605026 39.14200317 17.55187835 42.34815323 16.64453125 45.5546875 C16.41823532 46.35199783 16.19193939 47.14930817 15.95878601 47.97077942 C14.52539958 53.04855646 13.16864097 58.13977496 11.88671875 63.2578125 C11.57492676 64.49926025 11.26313477 65.74070801 10.94189453 67.01977539 C10.36794925 69.3319686 9.80213799 71.64620046 9.24560547 73.96264648 C8.99053223 74.98688721 8.73545898 76.01112793 8.47265625 77.06640625 C8.25875244 77.95271729 8.04484863 78.83902832 7.82446289 79.75219727 C6.90926487 82.24737884 6.12847189 83.42017836 4 85 C-4.2957926 85.96784247 -12.14998426 83.49318102 -20 81 C-20.33 80.67 -20.66 80.34 -21 80 C-20.53370255 72.51745125 -18.73469858 65.57490131 -16.76171875 58.36328125 C-16.43967972 57.16624069 -16.11764069 55.96920013 -15.7858429 54.73588562 C-14.75923845 50.9263911 -13.72339727 47.11947675 -12.6875 43.3125 C-12.00267199 40.77424582 -11.31842176 38.23583569 -10.63476562 35.69726562 C-8.77138421 28.79403772 -6.90582328 21.8916518 -5 15 C-4.82479954 14.36576992 -4.64959908 13.73153984 -4.46908951 13.07809067 C-3.92845521 11.12798636 -3.3826342 9.1794078 -2.83520508 7.23120117 C-2.34495598 5.47956917 -2.34495598 5.47956917 -1.84480286 3.69255066 C-1 1 -1 1 0 0 Z " fill="#3CB469" transform="translate(400,245)"/>
<path d="M0 0 C2.42986445 7.43891463 4.51963899 14.90111248 6.375 22.5 C8.10304204 29.56742981 9.97430626 36.57453636 12 43.5625 C14.00272851 50.48336213 15.95995739 57.41225413 17.8125 64.375 C18.01939453 65.14142822 18.22628906 65.90785645 18.43945312 66.69750977 C19.60563642 71.12223299 20.44265561 75.45734353 21 80 C18.33708249 80.84729194 15.67070002 81.67790432 13 82.5 C11.88431641 82.85771484 11.88431641 82.85771484 10.74609375 83.22265625 C5.65690505 84.77153977 1.31792217 85.67600706 -4 85 C-7.59949382 81.40176123 -8.84530604 78.0058313 -10.078125 73.12890625 C-10.2507637 72.46216385 -10.4234024 71.79542145 -10.60127258 71.10847473 C-11.16279704 68.92934138 -11.70658495 66.74621297 -12.25 64.5625 C-12.63671005 63.04411995 -13.02466525 61.52605652 -13.41381836 60.00830078 C-14.01263376 57.67213129 -14.6104686 55.3357592 -15.20347595 52.99810791 C-16.53223624 47.76975227 -17.9242946 42.56230451 -19.36328125 37.36328125 C-19.73739793 36.00254842 -20.11142325 34.64179047 -20.48535156 33.28100586 C-21.18578504 30.73364944 -21.89622552 28.18980876 -22.61230469 25.64672852 C-25.74120928 14.17434524 -25.74120928 14.17434524 -25 8 C-23.00986494 5.48747812 -21.20811233 4.5006679 -18.1640625 3.61328125 C-17.42929688 3.39736328 -16.69453125 3.18144531 -15.9375 2.95898438 C-15.174375 2.74564453 -14.41125 2.53230469 -13.625 2.3125 C-12.86960937 2.08755859 -12.11421875 1.86261719 -11.3359375 1.63085938 C-7.46796313 0.51847863 -4.06712994 -0.29976854 0 0 Z " fill="#3DB469" transform="translate(122,245)"/>
<path d="M0 0 C4.62 0 9.24 0 14 0 C14.53324319 12.6200889 12.51074985 25.18613136 8 37 C6.01739401 36.57835981 4.03892755 36.13721222 2.0625 35.6875 C0.96035156 35.44386719 -0.14179688 35.20023438 -1.27734375 34.94921875 C-2.17582031 34.63597656 -3.07429688 34.32273438 -4 34 C-5.06091773 30.8172468 -4.95693755 29.87801016 -4.2578125 26.71875 C-4.07895508 25.88118164 -3.90009766 25.04361328 -3.71582031 24.18066406 C-3.52084961 23.29604492 -3.32587891 22.41142578 -3.125 21.5 C-1.60644409 14.3197314 -0.43185178 7.34148029 0 0 Z " fill="#F8F8F8" transform="translate(410,198)"/>
<path d="M0 0 C4.62 0 9.24 0 14 0 C14.18175781 1.31613281 14.36351563 2.63226563 14.55078125 3.98828125 C16.32231149 16.63579908 16.32231149 16.63579908 19.44921875 29.00390625 C20 31 20 31 20 34 C18.60582227 34.34019152 17.20955342 34.67181779 15.8125 35 C15.03519531 35.185625 14.25789063 35.37125 13.45703125 35.5625 C10.92009775 36.01422743 8.57120097 36.07307143 6 36 C2.83094817 23.91569824 0.37900772 12.50725467 0 0 Z " fill="#F9F9F9" transform="translate(97,198)"/>
<path d="M0 0 C2.5 1.5625 2.5 1.5625 4 4 C3.9375 7.625 3.9375 7.625 3 11 C-0.70415293 13.46943529 -2.62144505 13.46913089 -7 13 C-9.66266871 10.76679398 -9.95347082 9.3799883 -10.375 5.9375 C-10 3 -10 3 -8.9375 1.125 C-5.84902396 -0.66830867 -3.48856031 -0.42841969 0 0 Z " fill="#020703" transform="translate(164,249)"/>
<path d="M0 0 C3.625 0.375 3.625 0.375 6.0625 2.0625 C7.625 4.375 7.625 4.375 8.125 6.875 C7.44395125 10.28024375 6.4770847 11.40047983 3.625 13.375 C0.0625 13.875 0.0625 13.875 -3.375 13.375 C-5.375 11.8125 -5.375 11.8125 -6.375 9.375 C-5.92413295 0.65823699 -5.92413295 0.65823699 0 0 Z " fill="#020503" transform="translate(360.375,248.625)"/>
<path d="M0 0 C2 3 2 3 1.609375 6.109375 C1.32578125 7.31078125 1.0421875 8.5121875 0.75 9.75 C0.45738281 11.00425781 0.16476562 12.25851562 -0.13671875 13.55078125 C-1.325 18.29852942 -2.67411608 22.9499296 -4.125 27.625 C-5.20913513 31.22556718 -5.20913513 31.22556718 -5 36 C-1.7 36.66 1.6 37.32 5 38 C5 38.66 5 39.32 5 40 C3.56138706 39.91253716 2.12402492 39.80434652 0.6875 39.6875 C-0.51326172 39.60048828 -0.51326172 39.60048828 -1.73828125 39.51171875 C-4.45601614 38.89682536 -5.2621188 38.1422321 -7 36 C-7.8609525 27.92857033 -5.63143273 20.67731652 -3.5 12.9375 C-3.16613281 11.69033203 -2.83226562 10.44316406 -2.48828125 9.15820312 C-1.66878085 6.10263734 -0.83915212 3.05021594 0 0 Z " fill="#3F9F66" transform="translate(330,287)"/>
<path d="M0 0 C1.93822202 5.49162906 -0.65629389 10.78139715 -2.25 16.125 C-2.56324219 17.23488281 -2.87648438 18.34476562 -3.19921875 19.48828125 C-3.50988281 20.54660156 -3.82054687 21.60492188 -4.140625 22.6953125 C-4.42454102 23.66484863 -4.70845703 24.63438477 -5.00097656 25.63330078 C-6 28 -6 28 -9 30 C-12.84889483 30.20993972 -16.31233808 30.18005182 -20 29 C-19.25 21.375 -19.25 21.375 -17 18 C-17.33 20.97 -17.66 23.94 -18 27 C-15.36 27.33 -12.72 27.66 -10 28 C-10 27.34 -10 26.68 -10 26 C-9.01 26 -8.02 26 -7 26 C-6.87625 24.948125 -6.7525 23.89625 -6.625 22.8125 C-6 19 -6 19 -5.05859375 16.68359375 C-3.83359445 13.57815272 -3.14220457 10.51156462 -2.4375 7.25 C-1.10872675 1.10872675 -1.10872675 1.10872675 0 0 Z " fill="#48A66E" transform="translate(368,303)"/>
<path d="M0 0 C2.5214276 5.0428552 4 9.33978574 4 15 C1.31578673 15.8454215 -1.37156768 16.67647233 -4.0625 17.5 C-4.81466797 17.73847656 -5.56683594 17.97695313 -6.34179688 18.22265625 C-11.07832621 19.65796817 -15.05218166 20.26283232 -20 20 C-16.83759418 17.89172945 -15.49342531 17.66182535 -11.8125 17.375 C-10.91144531 17.30023438 -10.01039063 17.22546875 -9.08203125 17.1484375 C-8.39496094 17.09945313 -7.70789063 17.05046875 -7 17 C-7 16.34 -7 15.68 -7 15 C-4.36 15 -1.72 15 1 15 C0.67 10.05 0.34 5.1 0 0 Z " fill="#4BA770" transform="translate(139,310)"/>
<path d="M0 0 C0.33 0 0.66 0 1 0 C3 10 3 10 3.44140625 12.76953125 C3.62574219 13.50558594 3.81007812 14.24164063 4 15 C4.66 15.33 5.32 15.66 6 16 C5.34 16 4.68 16 4 16 C4.27714844 16.96421875 4.55429688 17.9284375 4.83984375 18.921875 C5.20207031 20.18515625 5.56429687 21.4484375 5.9375 22.75 C6.29714844 24.00296875 6.65679687 25.2559375 7.02734375 26.546875 C7.72554149 29.02561719 8.39943726 31.49660162 9 34 C8.34 34 7.68 34 7 34 C-1.92574128 3.85148255 -1.92574128 3.85148255 0 0 Z " fill="#47A56C" transform="translate(146,273)"/>
<path d="M0 0 C3.26715497 0.29701409 5.59668477 0.76214743 8.4375 2.4375 C11.02702902 6.6843276 10.00251832 10.26901466 9 15 C7.48895937 21.04416251 5.76371038 27.02551243 4 33 C3.67 33 3.34 33 3 33 C3.34250313 25.87593482 4.80620258 19.32778002 6.89160156 12.53515625 C8.04570334 8.47157541 8.04570334 8.47157541 6.77734375 4.5703125 C4.57514598 2.62463447 2.88661518 2.31206651 0 2 C0 1.34 0 0.68 0 0 Z " fill="#49A26B" transform="translate(415,249)"/>
<path d="M0 0 C0.66 0 1.32 0 2 0 C3.56887184 4.80467001 4.57922475 8.88351468 4 14 C2.5 16.375 2.5 16.375 0 18 C-2.70401084 18.60891847 -5.21661895 18.81444126 -8 19 C-7.505 17.515 -7.505 17.515 -7 16 C-5.0625 15.25 -5.0625 15.25 -3 15 C-2.34 15.33 -1.68 15.66 -1 16 C-0.67 15.01 -0.34 14.02 0 13 C0.66 13 1.32 13 2 13 C1.39174965 8.65535464 0.73832608 4.32448133 0 0 Z " fill="#47A06C" transform="translate(195,308)"/>
<path d="M0 0 C0.33 0 0.66 0 1 0 C1.93405225 4.35891051 1.81144268 7.63849557 1 12 C1.33 12.33 1.66 12.66 2 13 C3.57846031 18.36906939 4.23733045 23.42273453 4 29 C3.67 29 3.34 29 3 29 C2.14983276 26.00451712 1.32305414 23.00303537 0.5 20 C0.14228516 18.74123047 0.14228516 18.74123047 -0.22265625 17.45703125 C-1.6647224 12.14198743 -2.44289618 7.51159689 -2 2 C-1.34 1.34 -0.68 0.68 0 0 Z " fill="#47A66C" transform="translate(99,251)"/>
<path d="M0 0 C0 3.33333333 0 6.66666667 0 10 C1.73575649 10.87436418 1.73575649 10.87436418 4 11 C7.12176503 8.91882331 8.91101089 7.13348366 11 4 C11.35430394 7.18873549 11.25953249 8.61589191 9.4375 11.3125 C6.08673477 13.63226055 3.98782145 13.58004676 0 13 C-2 11.4375 -2 11.4375 -3 9 C-2.67272727 2.67272727 -2.67272727 2.67272727 0 0 Z " fill="#031907" transform="translate(357,249)"/>
<path d="M0 0 C1.99231104 2.6806657 2.40194248 5.30647783 3.078125 8.55859375 C3.32949219 9.73808594 3.58085937 10.91757813 3.83984375 12.1328125 C4.02160156 13.03644531 4.20335937 13.94007813 4.390625 14.87109375 C3.730625 14.87109375 3.070625 14.87109375 2.390625 14.87109375 C2.00970703 13.48083984 2.00970703 13.48083984 1.62109375 12.0625 C1.27691406 10.86496094 0.93273437 9.66742188 0.578125 8.43359375 C0.24167969 7.23863281 -0.09476563 6.04367188 -0.44140625 4.8125 C-0.82683594 3.84183594 -1.21226562 2.87117187 -1.609375 1.87109375 C-4.75868393 0.82132411 -6.99751956 0.7697778 -10.296875 0.80859375 C-11.29074219 0.81761719 -12.28460938 0.82664063 -13.30859375 0.8359375 C-14.06785156 0.84753906 -14.82710937 0.85914063 -15.609375 0.87109375 C-10.81966871 -2.32204378 -5.14893072 -3.61174995 0 0 Z " fill="#449966" transform="translate(172.609375,220.12890625)"/>
<path d="M0 0 C0.66902344 0.12117187 1.33804687 0.24234375 2.02734375 0.3671875 C2.69894531 0.47289062 3.37054688 0.57859375 4.0625 0.6875 C5.96484375 1.2421875 5.96484375 1.2421875 8.96484375 3.2421875 C8.3615625 3.21898437 7.75828125 3.19578125 7.13671875 3.171875 C6.3375 3.15382812 5.53828125 3.13578125 4.71484375 3.1171875 C3.53148437 3.08238281 3.53148437 3.08238281 2.32421875 3.046875 C-0.39470679 3.27195162 -1.83593226 3.61172834 -4.03515625 5.2421875 C-5.16929655 7.86846741 -5.16929655 7.86846741 -5.78515625 10.8671875 C-6.0275 11.87007812 -6.26984375 12.87296875 -6.51953125 13.90625 C-6.6896875 14.67710937 -6.85984375 15.44796875 -7.03515625 16.2421875 C-7.69515625 16.2421875 -8.35515625 16.2421875 -9.03515625 16.2421875 C-8.63656064 14.32168138 -8.21549699 12.40583038 -7.78515625 10.4921875 C-7.553125 9.42484375 -7.32109375 8.3575 -7.08203125 7.2578125 C-5.77986248 3.50678903 -4.2244166 0.50271368 0 0 Z " fill="#469E69" transform="translate(354.03515625,217.7578125)"/>
<path d="M0 0 C0.66 0 1.32 0 2 0 C1.37851697 2.70918332 0.75293439 5.41731127 0.125 8.125 C-0.13603516 9.26582031 -0.13603516 9.26582031 -0.40234375 10.4296875 C-1.39798428 14.70725424 -2.52971389 18.85405809 -4 23 C-4.33 23 -4.66 23 -5 23 C-5.16868683 18.61414247 -5.05053352 15.84475034 -3 12 C-2.83249586 9.33290931 -2.83249586 9.33290931 -3 7 C-2.34 7 -1.68 7 -1 7 C-0.67 4.69 -0.34 2.38 0 0 Z " fill="#44A36B" transform="translate(342,291)"/>
<path d="M0 0 C2.4375 1.6875 2.4375 1.6875 4 4 C4.25 6.75 4.25 6.75 4 9 C1 5.25 1 5.25 1 3 C-1.85078091 2.23283149 -1.85078091 2.23283149 -5 2 C-7.62103327 3.77855829 -8.72200196 6.14908131 -10 9 C-10.35789474 3.63157895 -10.35789474 3.63157895 -8.9375 1.125 C-5.84902396 -0.66830867 -3.48856031 -0.42841969 0 0 Z " fill="#041E08" transform="translate(164,249)"/>
<path d="M0 0 C1.99637974 3.99275947 3.08636875 7.82429728 4.125 12.125 C4.30675781 12.85332031 4.48851562 13.58164062 4.67578125 14.33203125 C6 19.71851504 6 19.71851504 6 22 C5.34 22 4.68 22 4 22 C3.80664062 21.21753906 3.61328125 20.43507813 3.4140625 19.62890625 C3.15367187 18.61699219 2.89328125 17.60507812 2.625 16.5625 C2.36976563 15.55316406 2.11453125 14.54382813 1.8515625 13.50390625 C1.27426046 10.84429676 1.27426046 10.84429676 -1 10 C-0.67 6.7 -0.34 3.4 0 0 Z " fill="#44A46B" transform="translate(163,292)"/>
<path d="M0 0 C0.33 0 0.66 0 1 0 C1.05416188 1.60379341 1.09286638 3.20811406 1.125 4.8125 C1.14820313 5.70582031 1.17140625 6.59914063 1.1953125 7.51953125 C1 10 1 10 -1 13 C-1.16713569 15.62531524 -1.16713569 15.62531524 -1 18 C-2.98 18.99 -2.98 18.99 -5 20 C-3.33333333 13.33333333 -1.66666667 6.66666667 0 0 Z " fill="#43A168" transform="translate(393,268)"/>
<path d="M0 0 C0.50367757 1.45706726 1.00282556 2.91570096 1.5 4.375 C1.7784375 5.18710938 2.056875 5.99921875 2.34375 6.8359375 C3 9 3 9 3 11 C2.34 11 1.68 11 1 11 C0.34 8.03 -0.32 5.06 -1 2 C-1.99 2.33 -2.98 2.66 -4 3 C-5.56118428 3.06740865 -7.1250252 3.08514456 -8.6875 3.0625 C-9.89986328 3.04896484 -9.89986328 3.04896484 -11.13671875 3.03515625 C-12.05904297 3.01775391 -12.05904297 3.01775391 -13 3 C-8.49192825 0.69441653 -5.09714099 -0.14158725 0 0 Z " fill="#479964" transform="translate(122,245)"/>
<path d="M0 0 C1.25631019 3.58218177 0.7448506 6.00647476 -0.25 9.625 C-0.62898438 11.06746094 -0.62898438 11.06746094 -1.015625 12.5390625 C-2 15 -2 15 -5 17 C-4.35083537 10.99522721 -2.14204997 5.599219 0 0 Z " fill="#5DA979" transform="translate(409,312)"/>
<path d="M0 0 C1.4606285 2.64738916 2 3.89448334 2 7 C5.3 7.66 8.6 8.32 12 9 C12 9.66 12 10.32 12 11 C10.56138706 10.91253716 9.12402492 10.80434652 7.6875 10.6875 C6.88699219 10.62949219 6.08648437 10.57148438 5.26171875 10.51171875 C2.57095651 9.90292799 1.60703387 9.22512381 0 7 C-0.1875 3.3125 -0.1875 3.3125 0 0 Z " fill="#4EA271" transform="translate(323,316)"/>
<path d="M0 0 C1.35949488 4.07848463 0.14486103 7.17680945 -0.9375 11.1875 C-1.13279297 11.93708984 -1.32808594 12.68667969 -1.52929688 13.45898438 C-2.01214375 15.30793459 -2.50510633 17.15423776 -3 19 C-3.33 19 -3.66 19 -4 19 C-5.0503501 14.48349456 -4.93488779 12.17528419 -3 8 C-2.649375 6.7625 -2.29875 5.525 -1.9375 4.25 C-1 1 -1 1 0 0 Z " fill="#48A56C" transform="translate(414,293)"/>
<path d="M0 0 C0.33 5.28 0.66 10.56 1 16 C-1.5214276 10.9571448 -3 6.66021426 -3 1 C-1 0 -1 0 0 0 Z " fill="#43A76B" transform="translate(157,307)"/>
<path d="M0 0 C2.5214276 5.0428552 4 9.33978574 4 15 C3.01 15.33 2.02 15.66 1 16 C0.67 10.72 0.34 5.44 0 0 Z " fill="#449E67" transform="translate(139,310)"/>
<path d="M0 0 C3.875 1.875 3.875 1.875 5 3 C5.3125 5.8125 5.3125 5.8125 5 9 C3 11.375 3 11.375 1 13 C1.09539062 12.39671875 1.19078125 11.7934375 1.2890625 11.171875 C1.39992187 10.37265625 1.51078125 9.5734375 1.625 8.75 C1.74101562 7.96109375 1.85703125 7.1721875 1.9765625 6.359375 C2.00319395 3.67847541 1.36592084 2.27305911 0 0 Z " fill="#4BAC70" transform="translate(165,249)"/>
<path d="M0 0 C3.43600559 5.15400839 4.24403837 8.77702167 4 15 C0.89809455 10.34714182 -0.33846504 5.58467324 0 0 Z " fill="#66B082" transform="translate(111,309)"/>
<path d="M0 0 C1.81495662 0.44850658 3.62693134 0.90909571 5.4375 1.375 C6.44683594 1.63023437 7.45617187 1.88546875 8.49609375 2.1484375 C11 3 11 3 12 5 C6.25 5.125 6.25 5.125 4 4 C4 3.34 4 2.68 4 2 C2.68 2 1.36 2 0 2 C0 1.34 0 0.68 0 0 Z " fill="#4CA66D" transform="translate(374,223)"/>
<path d="M0 0 C1.10844919 3.32534757 0.84454356 5.62182575 0 9 C0.99 9.33 1.98 9.66 3 10 C1.35 10.33 -0.3 10.66 -2 11 C-1.125 3.375 -1.125 3.375 0 0 Z " fill="#409361" transform="translate(350,321)"/>
<path d="M0 0 C1.4540625 0.0309375 1.4540625 0.0309375 2.9375 0.0625 C2.133125 0.619375 1.32875 1.17625 0.5 1.75 C-2.30478216 4.28114487 -2.75631595 5.38829134 -3.0625 9.0625 C-3.3925 9.0625 -3.7225 9.0625 -4.0625 9.0625 C-4.16015625 2.91015625 -4.16015625 2.91015625 -4.0625 1.0625 C-3.0625 0.0625 -3.0625 0.0625 0 0 Z " fill="#082611" transform="translate(100.0625,248.9375)"/>
<path d="M0 0 C-3.22791555 2.1519437 -4.28400809 2.20086443 -8 2 C-8 1.01 -8 0.02 -8 -1 C-4.37673261 -2.2077558 -3.35853631 -1.54311128 0 0 Z " fill="#47B270" transform="translate(387,323)"/>
<path d="M0 0 C0 0.66 0 1.32 0 2 C-2.31 2.33 -4.62 2.66 -7 3 C-6.67 2.01 -6.34 1.02 -6 0 C-3 -1 -3 -1 0 0 Z " fill="#4EA571" transform="translate(194,324)"/>
<path d="M0 0 C-0.99 1.485 -0.99 1.485 -2 3 C-4.97 2.505 -4.97 2.505 -8 2 C-4.77208445 -0.1519437 -3.71599191 -0.20086443 0 0 Z " fill="#44AA6D" transform="translate(108,249)"/>
</svg>
