<?xml version="1.0" encoding="UTF-8"?>
<svg version="1.1" xmlns="http://www.w3.org/2000/svg" width="547" height="407">
<path d="M0 0 C180.51 0 361.02 0 547 0 C547 134.31 547 268.62 547 407 C366.49 407 185.98 407 0 407 C0 272.69 0 138.38 0 0 Z " fill="#FEFEFE" transform="translate(0,0)"/>
<path d="M0 0 C1.97882109 0.50136593 3.95793275 1.00158833 5.9375 1.5 C7.27361328 1.83644531 7.27361328 1.83644531 8.63671875 2.1796875 C13.49926112 3.36567344 18.37282162 4.50088304 23.25 5.625 C24.18577881 5.84349609 25.12155762 6.06199219 26.08569336 6.28710938 C53.65244717 12.58920354 79.28184033 6.40083819 106.1484375 -0.515625 C112.03561783 -2.02536057 117.94754279 -3.40808674 123.875 -4.75 C124.74801758 -4.94851562 125.62103516 -5.14703125 126.52050781 -5.3515625 C128.19396359 -5.72817066 129.86868227 -6.09921556 131.54467773 -6.46435547 C133.17969441 -6.821045 134.81211485 -7.18985347 136.44165039 -7.57080078 C157.16285934 -12.17185898 178.15746154 -9.3538237 196.20654297 1.82421875 C237.56816426 28.94068596 252.25468278 86.17837108 261.703125 131.44140625 C262.94955447 137.60611788 264.02813358 143.78647093 265 150 C265.2155957 151.34372681 265.2155957 151.34372681 265.43554688 152.71459961 C270.48982991 185.55854093 274.87804916 231.25217373 255.125 260.125 C249.19805625 267.62646391 241.13343523 273.87820151 231.45239258 275.40063477 C228.74683427 275.57205159 226.085571 275.60663057 223.375 275.5625 C222.40860596 275.55081787 221.44221191 275.53913574 220.4465332 275.52709961 C194.91159749 274.74752042 171.85848519 256.78569687 153 241 C151.98679687 240.15953125 150.97359375 239.3190625 149.9296875 238.453125 C144.98791192 234.32711118 140.13254976 230.16156404 135.47583008 225.71459961 C129.21906217 219.77041134 122.58586245 215.13946937 115 211 C114.16597656 210.54109375 113.33195312 210.0821875 112.47265625 209.609375 C77.93564451 192.36814955 34.52506635 194.9086011 -1.38671875 206.05078125 C-12.66345938 210.00920287 -22.85901774 216.18471142 -31.015625 224.96875 C-34.19067539 228.21880158 -37.76282436 230.95952415 -41.3046875 233.796875 C-43.64513601 235.70993726 -45.85404096 237.68877156 -48.0625 239.75 C-67.63320884 257.29011651 -96.56041859 277.43568239 -123.83984375 276.375 C-135.09143548 275.03982966 -143.62158959 270.23979645 -151 261.6796875 C-164.35620968 243.77545815 -165.21195911 221.85358444 -165.125 200.375 C-165.12311676 199.6696814 -165.12123352 198.96436279 -165.11929321 198.2376709 C-164.92334235 135.57950076 -150.91912521 58.49930576 -105.5625 12.125 C-75.56212291 -17.59917897 -36.97765444 -9.55832648 0 0 Z " fill="#FDFDFD" transform="translate(228,72)"/>
<path d="M0 0 C1.97882109 0.50136593 3.95793275 1.00158833 5.9375 1.5 C7.27361328 1.83644531 7.27361328 1.83644531 8.63671875 2.1796875 C13.49926112 3.36567344 18.37282162 4.50088304 23.25 5.625 C24.18577881 5.84349609 25.12155762 6.06199219 26.08569336 6.28710938 C53.65244717 12.58920354 79.28184033 6.40083819 106.1484375 -0.515625 C112.03561783 -2.02536057 117.94754279 -3.40808674 123.875 -4.75 C124.74801758 -4.94851562 125.62103516 -5.14703125 126.52050781 -5.3515625 C128.19396359 -5.72817066 129.86868227 -6.09921556 131.54467773 -6.46435547 C133.17969441 -6.821045 134.81211485 -7.18985347 136.44165039 -7.57080078 C157.16285934 -12.17185898 178.15746154 -9.3538237 196.20654297 1.82421875 C237.56816426 28.94068596 252.25468278 86.17837108 261.703125 131.44140625 C262.94955447 137.60611788 264.02813358 143.78647093 265 150 C265.2155957 151.34372681 265.2155957 151.34372681 265.43554688 152.71459961 C270.48982991 185.55854093 274.87804916 231.25217373 255.125 260.125 C249.19805625 267.62646391 241.13343523 273.87820151 231.45239258 275.40063477 C228.74683427 275.57205159 226.085571 275.60663057 223.375 275.5625 C222.40860596 275.55081787 221.44221191 275.53913574 220.4465332 275.52709961 C194.91159749 274.74752042 171.85848519 256.78569687 153 241 C151.98679687 240.15953125 150.97359375 239.3190625 149.9296875 238.453125 C144.98791192 234.32711118 140.13254976 230.16156404 135.47583008 225.71459961 C129.21906217 219.77041134 122.58586245 215.13946937 115 211 C114.16597656 210.54109375 113.33195312 210.0821875 112.47265625 209.609375 C77.93564451 192.36814955 34.52506635 194.9086011 -1.38671875 206.05078125 C-12.66345938 210.00920287 -22.85901774 216.18471142 -31.015625 224.96875 C-34.19067539 228.21880158 -37.76282436 230.95952415 -41.3046875 233.796875 C-43.64513601 235.70993726 -45.85404096 237.68877156 -48.0625 239.75 C-67.63320884 257.29011651 -96.56041859 277.43568239 -123.83984375 276.375 C-135.09143548 275.03982966 -143.62158959 270.23979645 -151 261.6796875 C-164.35620968 243.77545815 -165.21195911 221.85358444 -165.125 200.375 C-165.12311676 199.6696814 -165.12123352 198.96436279 -165.11929321 198.2376709 C-164.92334235 135.57950076 -150.91912521 58.49930576 -105.5625 12.125 C-75.56212291 -17.59917897 -36.97765444 -9.55832648 0 0 Z M-99.84765625 35.25 C-103.73206897 40.21302461 -106.88938415 45.52853826 -110 51 C-110.64710937 52.10730469 -111.29421875 53.21460938 -111.9609375 54.35546875 C-129.41489974 85.0003245 -138.54616939 122.9397626 -142.72363281 157.74462891 C-142.99174338 159.93261954 -143.3020453 162.11132979 -143.6171875 164.29296875 C-145.06628953 175.20681828 -145.22932111 186.15653061 -145.29653931 197.15048218 C-145.30701259 198.85626508 -145.32182098 200.56202802 -145.34140015 202.26773071 C-145.50137893 218.37669998 -145.34678719 238.20968374 -133.546875 250.59375 C-128.68223075 255.01615386 -123.90122703 255.66552947 -117.51953125 255.4609375 C-97.90597878 252.89223695 -80.93705361 240.14007545 -66 228 C-65.08089844 227.27296875 -64.16179687 226.5459375 -63.21484375 225.796875 C-58.75009202 222.22507362 -54.46516261 218.53504261 -50.31713867 214.60400391 C-21.82964311 187.65718039 13.96899604 177.77724134 52.75 177.8125 C53.69738037 177.81330566 54.64476074 177.81411133 55.62084961 177.81494141 C63.89626621 177.88622698 71.82587643 178.73900282 80 180 C81.03382813 180.10957031 82.06765625 180.21914062 83.1328125 180.33203125 C107.87513352 183.21125275 131.64085539 195.21169101 148.88671875 212.94140625 C152.10448902 216.07590705 155.58961916 218.84615106 159.09375 221.65234375 C162.03078337 224.02486667 164.8859537 226.47765378 167.75 228.9375 C183.42449792 241.96932196 204.00920708 256.94977178 225.1640625 256.3515625 C230.62348794 255.67477422 234.40875281 253.78449163 238.05859375 249.69140625 C247.82091773 236.15772169 248.49244067 218.74791665 248.33618164 202.71240234 C248.31258943 200.13477061 248.31564856 197.55818152 248.32226562 194.98046875 C248.30434665 184.18067934 247.50731887 173.68912562 246 163 C245.85409424 161.90751953 245.70818848 160.81503906 245.55786133 159.68945312 C239.28968931 113.82800028 228.41147772 52.21322824 189 22 C173.90831431 10.6885618 154.17549031 10.09385066 136.08447266 12.36621094 C129.29837124 13.52431446 122.65065726 15.23867098 116 17 C114.80036621 17.31598145 113.60073242 17.63196289 112.36474609 17.95751953 C111.09324707 18.29251465 109.82174805 18.62750977 108.51171875 18.97265625 C105.86234232 19.67066029 103.2126275 20.36735285 100.5625 21.0625 C99.90219788 21.23587891 99.24189575 21.40925781 98.56158447 21.58789062 C58.10503263 32.1647022 25.58780047 28.01082847 -14.4375 16.765625 C-46.87596398 7.67726225 -76.29077697 8.09127802 -99.84765625 35.25 Z " fill="#030303" transform="translate(228,72)"/>
<path d="M0 0 C8.59435746 4.49860898 13.23407724 11.22833881 16.5 20.30859375 C16.65625 23.17578125 16.65625 23.17578125 16.5 25.30859375 C18.418125 25.61796875 18.418125 25.61796875 20.375 25.93359375 C29.25345751 27.95777038 35.87678525 32.61965273 41.09375 40.0390625 C45.86421273 47.73805929 46.69266801 55.28537597 45.5 64.30859375 C42.44412985 73.5303863 37.11259044 80.96514854 28.5625 85.68359375 C24.57417439 87.50995029 20.85577523 87.99746695 16.5 88.30859375 C16.55027344 89.18773437 16.60054688 90.066875 16.65234375 90.97265625 C16.31544799 98.34980948 11.53393573 104.71871558 6.375 109.74609375 C-0.67674151 115.47710775 -8.21131428 117.71658998 -17.25 117.30859375 C-27.12281535 116.09799853 -33.77217273 111.5661712 -40.5 104.30859375 C-44.06069877 99.26100977 -45.06522487 94.3954456 -45.5 88.30859375 C-46.655 88.22609375 -47.81 88.14359375 -49 88.05859375 C-56.29838471 87.1414516 -63.01832256 83.37228294 -67.80859375 77.78125 C-74.36910703 69.19612729 -75.55460092 60.9504758 -74.5 50.30859375 C-72.62461894 42.18194248 -68.12954463 35.63475653 -61.36328125 30.7734375 C-56.24505939 27.70965024 -51.35381099 26.33068773 -45.5 25.30859375 C-45.40203125 24.65632813 -45.3040625 24.0040625 -45.203125 23.33203125 C-43.64298703 14.21329383 -39.59171429 8.19929191 -32.5 2.30859375 C-22.29485629 -3.91954542 -11.09873833 -4.66211537 0 0 Z " fill="#020503" transform="translate(193.5,119.69140625)"/>
<path d="M0 0 C2.93423195 1.79646854 4.47205355 2.9441071 6 6 C6.23989074 9.50507031 6.38287444 13.00915368 6.5234375 16.51953125 C7.15477636 21.13037492 8.74707195 23.74707195 12 27 C16.40036106 28.54661217 21.1969696 28.27081358 25.80859375 28.42578125 C29.58075863 29.1044939 31.27110201 30.36024931 34 33 C35.85726616 36.71453232 35.58501089 40.95579425 35 45 C32.80977082 47.82424288 31.16982793 49.41508603 28 51 C24.49492969 51.23989074 20.99084632 51.38287444 17.48046875 51.5234375 C13.81244685 52.02568068 11.89318199 52.7249305 9 55 C5.90955772 59.20487449 6.65674989 64.58812967 6.5390625 69.58984375 C5.91552769 73.53437919 4.75054949 75.16672722 2 78 C-1.26934278 80.28853994 -4.0698152 80.47162218 -8 80 C-11.96988847 77.86236774 -14.41921751 76.23707452 -16 72 C-16.33262818 68.46740454 -16.44103421 64.95590376 -16.55859375 61.41015625 C-17.03050589 57.76432173 -17.74185613 55.87540416 -20 53 C-24.33107276 49.7590612 -30.20630613 50.65189798 -35.37109375 50.5390625 C-39.47811533 49.92897749 -41.13212294 48.94828483 -44 46 C-45.23724397 42.2882681 -45.6979689 38.85008649 -45 35 C-42.5625 32.0625 -42.5625 32.0625 -40 30 C-39.67 29.67 -39.34 29.34 -39 29 C-36.96074582 28.84040619 -34.9181533 28.72273626 -32.875 28.625 C-27.53901934 28.2442769 -23.59724756 27.75834853 -19 25 C-15.85621523 20.52410304 -16.65363665 14.87327755 -16.5390625 9.62890625 C-15.93111162 5.5362514 -14.88968674 3.89509814 -12 1 C-8.30274625 -0.84862688 -4.03538558 -0.47587094 0 0 Z " fill="#04C269" transform="translate(184,137)"/>
<path d="M0 0 C5.53221828 3.08527558 9.10129289 6.81873806 11.25 12.8125 C12.23003509 19.22042176 11.4563784 23.8211085 7.6875 29.12109375 C4.45964768 32.91908303 1.27146205 35.60292585 -3.7265625 36.12109375 C-10.69799326 36.36740768 -15.87748076 36.50980299 -21.1953125 31.6484375 C-25.19444334 26.9258458 -27.51067654 22.10104955 -27.12890625 15.8203125 C-25.89869307 9.30145091 -22.47116839 5.05897839 -17.43359375 0.94140625 C-12.21473447 -2.55801447 -5.69376292 -1.80302493 0 0 Z " fill="#040404" transform="translate(342.75,159.1875)"/>
<path d="M0 0 C4.69846949 2.64873878 7.44957922 6.02185763 10.0625 10.75 C11.68261248 16.935884 11.2812775 21.95577099 8.1171875 27.4765625 C5.49024163 31.12426448 2.93402727 33.61668179 -1.25 35.375 C-7.50479579 36.30322312 -13.09330064 36.37898074 -18.875 33.6875 C-24.10317092 28.59691252 -27.27688318 24.35111921 -27.5625 16.9375 C-27.41391113 11.33755685 -25.58071479 7.92150638 -21.9375 3.6875 C-15.24831671 -2.06830888 -8.16359525 -3.68131937 0 0 Z " fill="#040404" transform="translate(420.25,159.625)"/>
<path d="M0 0 C5.61416889 2.73272459 9.50501025 6.17932596 11.609375 12.1484375 C12.62168654 18.34884568 12.10809726 23.93838308 8.953125 29.42578125 C5.94577256 33.28113714 2.20207351 35.617538 -2.390625 37.1484375 C-8.82731128 37.92287115 -14.13651589 37.08615762 -19.390625 33.1484375 C-24.48384841 27.58759804 -25.83123827 22.47632374 -25.72265625 15.00390625 C-25.0812687 9.48797334 -22.6772094 5.96178296 -18.37109375 2.546875 C-12.32093774 -1.24639269 -6.80601207 -2.42436378 0 0 Z " fill="#040404" transform="translate(380.390625,196.8515625)"/>
<path d="M0 0 C4.73490434 2.30107501 8.11189963 5.6261139 11 10 C12.92879692 15.72999318 12.85822508 21.82071405 10.3125 27.3125 C7.92738402 31.53684274 4.99906037 33.85767979 0.8125 36.25 C-4.80288919 37.74743712 -10.62952223 38.10481252 -15.875 35.3125 C-20.56160208 31.84441446 -23.12037464 28.48690638 -25 23 C-25.64149526 17.87549718 -25.64505368 13.42449355 -23.5 8.6875 C-16.40639443 1.06187401 -10.76973479 -2.04114674 0 0 Z " fill="#030303" transform="translate(380,120)"/>
</svg>
