<?xml version="1.0" encoding="UTF-8"?>
<svg version="1.1" xmlns="http://www.w3.org/2000/svg" width="282" height="293">
<path d="M0 0 C93.06 0 186.12 0 282 0 C282 96.69 282 193.38 282 293 C188.94 293 95.88 293 0 293 C0 196.31 0 99.62 0 0 Z " fill="#FEFEFE" transform="translate(0,0)"/>
<path d="M0 0 C1.6231873 1.37366822 3.2273245 2.77013624 4.8125 4.1875 C5.64523438 4.92613281 6.47796875 5.66476563 7.3359375 6.42578125 C24.96181131 22.99410263 33.28467083 45.50912249 35.0390625 69.25390625 C35.66627202 90.20840601 27.64364382 113.78003539 13.3762207 129.22753906 C11.82596831 130.86081044 10.26722596 132.48560489 8.70703125 134.109375 C-8.40691686 152.03242728 -12.63926246 170.95206543 -12.62329102 194.80200195 C-12.6423943 208.03039004 -13.4977262 219.16282619 -23.1875 229.1875 C-32.23628405 236.56545048 -42.58316074 236.56050104 -53.76806641 236.55810547 C-56.05056517 236.56247714 -58.33112339 236.5988712 -60.61328125 236.63671875 C-71.88870599 236.72449156 -80.93412067 235.20305921 -89.4296875 227.2578125 C-95.13213988 220.54159081 -97.31267986 213.06643646 -97.3984375 204.44140625 C-97.42654495 202.86522468 -97.45520957 201.28905297 -97.484375 199.71289062 C-97.52530144 197.24488011 -97.56220788 194.77704582 -97.58886719 192.30883789 C-97.7033553 182.54083048 -98.14080748 173.57204157 -101.1875 164.1875 C-101.71730469 162.53427734 -101.71730469 162.53427734 -102.2578125 160.84765625 C-106.88980906 149.43922028 -113.85927203 140.40261731 -122.22973633 131.56640625 C-139.06977391 113.54664484 -146.05732983 89.11022722 -145.55859375 64.93359375 C-144.45881551 41.54080185 -132.3190711 20.24916869 -115.64453125 4.3046875 C-82.92846346 -23.8862644 -34.75385244 -26.89221655 0 0 Z " fill="#FCFCFC" transform="translate(196.1875,38.8125)"/>
<path d="M0 0 C1.6231873 1.37366822 3.2273245 2.77013624 4.8125 4.1875 C5.64523438 4.92613281 6.47796875 5.66476563 7.3359375 6.42578125 C24.96181131 22.99410263 33.28467083 45.50912249 35.0390625 69.25390625 C35.66627202 90.20840601 27.64364382 113.78003539 13.3762207 129.22753906 C11.82596831 130.86081044 10.26722596 132.48560489 8.70703125 134.109375 C-8.40691686 152.03242728 -12.63926246 170.95206543 -12.62329102 194.80200195 C-12.6423943 208.03039004 -13.4977262 219.16282619 -23.1875 229.1875 C-32.23628405 236.56545048 -42.58316074 236.56050104 -53.76806641 236.55810547 C-56.05056517 236.56247714 -58.33112339 236.5988712 -60.61328125 236.63671875 C-71.88870599 236.72449156 -80.93412067 235.20305921 -89.4296875 227.2578125 C-95.13213988 220.54159081 -97.31267986 213.06643646 -97.3984375 204.44140625 C-97.42654495 202.86522468 -97.45520957 201.28905297 -97.484375 199.71289062 C-97.52530144 197.24488011 -97.56220788 194.77704582 -97.58886719 192.30883789 C-97.7033553 182.54083048 -98.14080748 173.57204157 -101.1875 164.1875 C-101.71730469 162.53427734 -101.71730469 162.53427734 -102.2578125 160.84765625 C-106.88980906 149.43922028 -113.85927203 140.40261731 -122.22973633 131.56640625 C-139.06977391 113.54664484 -146.05732983 89.11022722 -145.55859375 64.93359375 C-144.45881551 41.54080185 -132.3190711 20.24916869 -115.64453125 4.3046875 C-82.92846346 -23.8862644 -34.75385244 -26.89221655 0 0 Z M-111.1875 17.1875 C-111.88488281 17.87328125 -112.58226563 18.5590625 -113.30078125 19.265625 C-128.2332014 34.92291992 -133.67205023 54.74993032 -133.39453125 75.88671875 C-132.83356619 95.44478261 -123.44515228 112.4416687 -110.3125 126.4375 C-95.11264313 142.85521906 -86.58457663 162.83427396 -85.1875 185.1875 C-81.2275 185.1875 -77.2675 185.1875 -73.1875 185.1875 C-73.1875 157.4675 -73.1875 129.7475 -73.1875 101.1875 C-76.8175 100.8575 -80.4475 100.5275 -84.1875 100.1875 C-89.83576556 97.56224981 -93.12895302 95.15564796 -95.55859375 89.359375 C-96.91862612 84.66261727 -97.14093996 80.57109989 -95.3046875 75.98046875 C-92.63044732 71.20756989 -89.46373816 67.87927977 -84.1875 66.1875 C-78.53644936 65.21002097 -73.90029322 66.11905898 -68.9140625 68.91015625 C-65.29746719 71.58578219 -63.57851975 75.01444074 -62.1875 79.1875 C-62.05606529 82.52594165 -62.14409024 85.84494868 -62.1875 89.1875 C-57.5675 89.1875 -52.9475 89.1875 -48.1875 89.1875 C-48.27 87.516875 -48.3525 85.84625 -48.4375 84.125 C-48.41012804 78.79431116 -47.85364053 75.16345522 -44.1875 71.1875 C-40.40657472 67.83331573 -36.78312664 65.88902211 -31.6875 65.625 C-26.93467538 65.92872109 -23.01907393 67.35282879 -19.1875 70.1875 C-15.03558161 75.40401285 -13.5536601 79.53218104 -14.1875 86.1875 C-15.61783083 90.72269532 -17.30181154 94.79420601 -21.20703125 97.6796875 C-26.66249823 100.29754731 -30.83267167 100.48140796 -37.1875 101.1875 C-37.1875 128.9075 -37.1875 156.6275 -37.1875 185.1875 C-33.2275 185.1875 -29.2675 185.1875 -25.1875 185.1875 C-25.10113281 184.06214844 -25.01476562 182.93679687 -24.92578125 181.77734375 C-22.74864487 156.75946923 -12.23431213 139.57945427 4.30078125 121.4609375 C19.25855968 104.35895249 23.05910627 84.04625935 22.01513672 61.91113281 C20.77499979 45.24249724 12.8791342 30.44993947 1.8125 18.1875 C1.18730469 17.48109375 0.56210938 16.7746875 -0.08203125 16.046875 C-13.60551313 1.61448293 -33.35713835 -6.00866183 -52.8046875 -6.9375 C-75.50477149 -7.46387876 -95.2122016 1.23969781 -111.1875 17.1875 Z " fill="#040504" transform="translate(196.1875,38.8125)"/>
<path d="M0 0 C19.8 0 39.6 0 60 0 C60 15.75728155 60 15.75728155 56 21 C50.73259504 26.00403471 46.54750341 27.31005358 39.3828125 27.30078125 C38.28064896 27.30720894 38.28064896 27.30720894 37.15621948 27.31376648 C35.60464506 27.31949811 34.05304377 27.32001864 32.50146484 27.31567383 C30.13982744 27.3125198 27.77945088 27.33596497 25.41796875 27.36132812 C23.90625157 27.363602 22.39453104 27.3643042 20.8828125 27.36328125 C20.18261993 27.372491 19.48242737 27.38170074 18.76101685 27.39118958 C14.10256555 27.34770882 10.95550548 26.44632911 7 24 C-0.54864184 16.10823808 0 11.59659274 0 0 Z " fill="#3CB569" transform="translate(111,236)"/>
<path d="M0 0 C3.96 0 7.92 0 12 0 C12 27.72 12 55.44 12 84 C8.04 84 4.08 84 0 84 C0 56.28 0 28.56 0 0 Z " fill="#40B069" transform="translate(135,140)"/>
<path d="M0 0 C1.3125 2.375 1.3125 2.375 1.3125 5.5 C0.3125 8.375 0.3125 8.375 -1.359375 9.515625 C-4.24505776 10.58080991 -6.8714438 10.75043729 -9.9375 11 C-20.35951902 12.35322551 -30.88656314 17.26000758 -38.6875 24.375 C-40.66427178 26.89034053 -40.66427178 26.89034053 -42.375 29.5625 C-45.4864071 34.27445355 -45.4864071 34.27445355 -47.6875 35.375 C-52.97673988 35.82514808 -52.97673988 35.82514808 -55.5625 34.1875 C-57.08886935 31.72834937 -56.96565185 30.24080692 -56.6875 27.375 C-54.77628052 24.04828359 -52.20798933 21.25832368 -49.6875 18.375 C-49.10871094 17.68921875 -48.52992187 17.0034375 -47.93359375 16.296875 C-38.48317508 5.92794912 -13.93208887 -8.42405374 0 0 Z " fill="#070707" transform="translate(145.6875,45.625)"/>
<path d="M0 0 C19.8 0 39.6 0 60 0 C60 13 60 13 57 17 C57 12.05 57 7.1 57 2 C38.85 1.67 20.7 1.34 2 1 C2.3033037 14.30218218 2.3033037 14.30218218 9 23 C16.21536433 25.41090298 23.44656911 25.43357197 31 25.625 C32.87751953 25.68300781 32.87751953 25.68300781 34.79296875 25.7421875 C37.8618372 25.83589341 40.93070853 25.9216107 44 26 C44 26.33 44 26.66 44 27 C39.6950223 27.07451364 35.39039266 27.12877223 31.08496094 27.16479492 C29.62232925 27.17982196 28.15974218 27.20024955 26.69726562 27.22631836 C24.5871272 27.26297267 22.47758774 27.27978676 20.3671875 27.29296875 C19.09987793 27.3086792 17.83256836 27.32438965 16.52685547 27.34057617 C11.09865932 26.81639414 7.98862441 25.03356188 4.25 21.125 C-1.1279183 13.65566902 0 10.15834712 0 0 Z " fill="#4DA770" transform="translate(111,236)"/>
<path d="M0 0 C2 3 2 3 1.75 6.0625 C1 9 1 9 -1 11 C-3.9375 11.375 -3.9375 11.375 -7 11 C-9.35210784 8.88310295 -9.91810953 7.55958485 -10.375 4.4375 C-10 2 -10 2 -8.9375 0.125 C-5.79705307 -1.69848531 -3.4014687 -0.8658284 0 0 Z " fill="#EFEFEF" transform="translate(121,117)"/>
<path d="M0 0 C2 3 2 3 1.875 6.0625 C1 9 1 9 -0.75 10.4375 C-3.54237695 11.13559424 -5.26731609 10.86295281 -8 10 C-10 8 -10 8 -10.3125 5.0625 C-10 2 -10 2 -8.9375 0.0625 C-5.78433176 -1.66665678 -3.37491745 -0.8590699 0 0 Z " fill="#F0F0F0" transform="translate(169,117)"/>
<path d="M0 0 C2.9375 0.75 2.9375 0.75 4.9375 2.75 C4.75 6.25 4.75 6.25 3.9375 9.75 C0.71606724 11.89762184 -0.3220467 12.311068 -4.0625 11.75 C-5.9375 10.125 -5.9375 10.125 -7.0625 7.75 C-6.9375 4.625 -6.9375 4.625 -6.0625 1.75 C-3.0625 -0.25 -3.0625 -0.25 0 0 Z " fill="#0B0B0B" transform="translate(88.0625,92.25)"/>
<path d="M0 0 C2.31 0 4.62 0 7 0 C7.08126087 2.08268593 7.13930839 4.16628658 7.1875 6.25 C7.22230469 7.41015625 7.25710937 8.5703125 7.29296875 9.765625 C7 13 7 13 4 17 C4 12.05 4 7.1 4 2 C2.68 1.34 1.36 0.68 0 0 Z " fill="#479A67" transform="translate(164,236)"/>
<path d="M0 0 C0.33 0.66 0.66 1.32 1 2 C1.99 2 2.98 2 4 2 C2.86500606 5.29148243 2.00716624 5.9959869 -1.125 7.75 C-2.548125 8.36875 -2.548125 8.36875 -4 9 C-4 8.01 -4 7.02 -4 6 C-2.35 5.67 -0.7 5.34 1 5 C0.67 3.35 0.34 1.7 0 0 Z " fill="#45A46A" transform="translate(163,253)"/>
</svg>
