<?xml version="1.0" encoding="UTF-8"?>
<svg version="1.1" xmlns="http://www.w3.org/2000/svg" width="276" height="222">
<path d="M0 0 C91.08 0 182.16 0 276 0 C276 73.26 276 146.52 276 222 C184.92 222 93.84 222 0 222 C0 148.74 0 75.48 0 0 Z " fill="#FEFEFE" transform="translate(0,0)"/>
<path d="M0 0 C16.48352632 6.00746112 35.25821516 29.66180166 46.17578125 42.79296875 C46.84383789 43.59033447 46.84383789 43.59033447 47.52539062 44.40380859 C59.41109816 58.63052385 70.07500404 73.6282162 80.49853516 88.94604492 C85.28369124 95.97510834 90.17241614 102.91777733 95.17578125 109.79296875 C95.7996875 110.67855469 96.42359375 111.56414062 97.06640625 112.4765625 C102.22208611 119.54820447 107.74328685 123.37467235 116.17578125 125.79296875 C125.6848797 126.98004411 133.65110613 125.04885799 142.17578125 120.79296875 C142.83578125 120.13296875 143.49578125 119.47296875 144.17578125 118.79296875 C160.45816061 119.38505527 175.29883569 129.3165065 186.17578125 140.79296875 C191.21413613 146.96426267 195.70102379 153.28277289 196.55078125 161.35546875 C196.05278937 165.92039435 195.1461564 169.04975465 191.6171875 172.171875 C178.06503497 181.61048435 158.993058 179.9550988 143.25 180.03125 C142.16078719 180.03736329 142.16078719 180.03736329 141.04957008 180.04360008 C137.22014297 180.06422342 133.39074937 180.07863619 129.5612793 180.08813477 C125.63656529 180.09927204 121.71240673 180.13382273 117.78789043 180.17330647 C114.7362214 180.19953868 111.68468543 180.2078314 108.63291359 180.21141624 C107.18615694 180.21624912 105.73940489 180.2277675 104.29276085 180.24645424 C92.10205223 180.39441046 84.20612492 178.54500688 75.23828125 170.12597656 C71.66639566 166.08561924 69.47106718 161.51232701 67.17578125 156.66796875 C66.15195195 154.6134781 65.12330592 152.56138072 64.08984375 150.51171875 C63.59516602 149.526875 63.10048828 148.54203125 62.59082031 147.52734375 C53.14283465 129.27036662 38.46066801 109.31622659 21.17578125 97.79296875 C20.53362029 99.34849456 19.91342561 100.91308299 19.30078125 102.48046875 C18.77871094 103.78564453 18.77871094 103.78564453 18.24609375 105.1171875 C15.37315136 114.98375241 14.87885338 125.02473228 14.83203125 135.2421875 C14.81740845 136.46202835 14.80278564 137.6818692 14.78771973 138.93867493 C14.72593493 144.10248876 14.68553635 149.26640914 14.64404297 154.43041992 C14.61047057 158.22197345 14.56537632 162.01326581 14.51953125 165.8046875 C14.51425415 166.97851486 14.50897705 168.15234222 14.50354004 169.36174011 C14.48341858 170.9803167 14.48341858 170.9803167 14.46289062 172.6315918 C14.45559937 173.5827739 14.44830811 174.53395599 14.4407959 175.51396179 C14.17578125 177.79296875 14.17578125 177.79296875 12.17578125 179.79296875 C8.54933621 180.24592208 4.88976387 180.11701677 1.23828125 180.10546875 C0.22314453 180.12158203 -0.79199219 180.13769531 -1.83789062 180.15429688 C-3.2987207 180.15526367 -3.2987207 180.15526367 -4.7890625 180.15625 C-5.68230225 180.15923096 -6.57554199 180.16221191 -7.49584961 180.1652832 C-10.40496664 179.70010511 -11.09033325 179.15806171 -12.82421875 176.79296875 C-13.19602966 173.91363525 -13.19602966 173.91363525 -13.19311523 170.35644531 C-13.19688171 169.70710526 -13.20064819 169.0577652 -13.20452881 168.38874817 C-13.2109637 166.97775973 -13.21062892 165.56672795 -13.2043438 164.15573883 C-13.19520831 161.90795789 -13.20549074 159.66100717 -13.22096252 157.41326904 C-13.26095318 151.02210829 -13.26229091 144.63101119 -13.26000977 138.23974609 C-13.25995803 134.32626773 -13.27944901 130.41322782 -13.30934334 126.4998703 C-13.31999431 124.31147096 -13.30813413 122.12397599 -13.29551697 119.93560791 C-13.33147051 105.94767951 -16.79724668 93.92411199 -22.94921875 81.35546875 C-27.29192011 72.37253401 -30.21604548 64.63262918 -30.13671875 54.54296875 C-30.1325293 53.80425537 -30.12833984 53.06554199 -30.12402344 52.30444336 C-29.99177651 45.82223334 -28.88301504 39.95145504 -26.82421875 33.79296875 C-26.56898437 32.96796875 -26.31375 32.14296875 -26.05078125 31.29296875 C-23.29602068 23.40778252 -10.12573219 -1.14917303 0 0 Z " fill="#FBFBFB" transform="translate(65.82421875,1.20703125)"/>
<path d="M0 0 C16.48352632 6.00746112 35.25821516 29.66180166 46.17578125 42.79296875 C46.84383789 43.59033447 46.84383789 43.59033447 47.52539062 44.40380859 C59.41109816 58.63052385 70.07500404 73.6282162 80.49853516 88.94604492 C85.28369124 95.97510834 90.17241614 102.91777733 95.17578125 109.79296875 C95.7996875 110.67855469 96.42359375 111.56414062 97.06640625 112.4765625 C102.22208611 119.54820447 107.74328685 123.37467235 116.17578125 125.79296875 C125.6848797 126.98004411 133.65110613 125.04885799 142.17578125 120.79296875 C142.83578125 120.13296875 143.49578125 119.47296875 144.17578125 118.79296875 C160.45816061 119.38505527 175.29883569 129.3165065 186.17578125 140.79296875 C191.21413613 146.96426267 195.70102379 153.28277289 196.55078125 161.35546875 C196.05278937 165.92039435 195.1461564 169.04975465 191.6171875 172.171875 C178.06503497 181.61048435 158.993058 179.9550988 143.25 180.03125 C142.16078719 180.03736329 142.16078719 180.03736329 141.04957008 180.04360008 C137.22014297 180.06422342 133.39074937 180.07863619 129.5612793 180.08813477 C125.63656529 180.09927204 121.71240673 180.13382273 117.78789043 180.17330647 C114.7362214 180.19953868 111.68468543 180.2078314 108.63291359 180.21141624 C107.18615694 180.21624912 105.73940489 180.2277675 104.29276085 180.24645424 C92.10205223 180.39441046 84.20612492 178.54500688 75.23828125 170.12597656 C71.66639566 166.08561924 69.47106718 161.51232701 67.17578125 156.66796875 C66.15195195 154.6134781 65.12330592 152.56138072 64.08984375 150.51171875 C63.59516602 149.526875 63.10048828 148.54203125 62.59082031 147.52734375 C53.14283465 129.27036662 38.46066801 109.31622659 21.17578125 97.79296875 C20.53362029 99.34849456 19.91342561 100.91308299 19.30078125 102.48046875 C18.77871094 103.78564453 18.77871094 103.78564453 18.24609375 105.1171875 C15.37315136 114.98375241 14.87885338 125.02473228 14.83203125 135.2421875 C14.81740845 136.46202835 14.80278564 137.6818692 14.78771973 138.93867493 C14.72593493 144.10248876 14.68553635 149.26640914 14.64404297 154.43041992 C14.61047057 158.22197345 14.56537632 162.01326581 14.51953125 165.8046875 C14.51425415 166.97851486 14.50897705 168.15234222 14.50354004 169.36174011 C14.48341858 170.9803167 14.48341858 170.9803167 14.46289062 172.6315918 C14.45559937 173.5827739 14.44830811 174.53395599 14.4407959 175.51396179 C14.17578125 177.79296875 14.17578125 177.79296875 12.17578125 179.79296875 C8.54933621 180.24592208 4.88976387 180.11701677 1.23828125 180.10546875 C0.22314453 180.12158203 -0.79199219 180.13769531 -1.83789062 180.15429688 C-3.2987207 180.15526367 -3.2987207 180.15526367 -4.7890625 180.15625 C-5.68230225 180.15923096 -6.57554199 180.16221191 -7.49584961 180.1652832 C-10.40496664 179.70010511 -11.09033325 179.15806171 -12.82421875 176.79296875 C-13.19602966 173.91363525 -13.19602966 173.91363525 -13.19311523 170.35644531 C-13.19688171 169.70710526 -13.20064819 169.0577652 -13.20452881 168.38874817 C-13.2109637 166.97775973 -13.21062892 165.56672795 -13.2043438 164.15573883 C-13.19520831 161.90795789 -13.20549074 159.66100717 -13.22096252 157.41326904 C-13.26095318 151.02210829 -13.26229091 144.63101119 -13.26000977 138.23974609 C-13.25995803 134.32626773 -13.27944901 130.41322782 -13.30934334 126.4998703 C-13.31999431 124.31147096 -13.30813413 122.12397599 -13.29551697 119.93560791 C-13.33147051 105.94767951 -16.79724668 93.92411199 -22.94921875 81.35546875 C-27.29192011 72.37253401 -30.21604548 64.63262918 -30.13671875 54.54296875 C-30.1325293 53.80425537 -30.12833984 53.06554199 -30.12402344 52.30444336 C-29.99177651 45.82223334 -28.88301504 39.95145504 -26.82421875 33.79296875 C-26.56898437 32.96796875 -26.31375 32.14296875 -26.05078125 31.29296875 C-23.29602068 23.40778252 -10.12573219 -1.14917303 0 0 Z M-3.62109375 12.33984375 C-14.68808329 24.82340795 -21.09821271 37.87860202 -20.88671875 54.66796875 C-20.88220703 55.35632812 -20.87769531 56.0446875 -20.87304688 56.75390625 C-20.86138211 58.4336321 -20.84345146 60.1133125 -20.82421875 61.79296875 C-19.92703125 62.19386719 -19.02984375 62.59476563 -18.10546875 63.0078125 C3.12167175 72.61831042 21.3727175 84.59259739 38.17578125 100.79296875 C39.00207031 101.55609375 39.82835937 102.31921875 40.6796875 103.10546875 C54.14321813 115.89906446 64.62738794 131.63499538 72.890625 148.1875 C73.3635498 149.1249707 73.83647461 150.06244141 74.32373047 151.02832031 C75.24179839 152.86318855 76.14174569 154.70727825 77.02001953 156.56152344 C80.01556436 162.57538425 83.30356583 166.42912221 89.17578125 169.79296875 C92.66914093 170.95742198 95.41591834 170.92715479 99.10302734 170.93823242 C99.80434784 170.94159103 100.50566833 170.94494965 101.22824097 170.94841003 C103.55191821 170.95792239 105.87552323 170.95986416 108.19921875 170.9609375 C109.82288645 170.964153 111.44655385 170.96751729 113.07022095 170.97102356 C116.48155385 170.97701773 119.89286142 170.97886348 123.30419922 170.97827148 C127.64230263 170.97817056 131.9802398 170.99174908 136.31830406 171.00904369 C139.67811808 171.02025899 143.03789335 171.02218769 146.39772415 171.02166176 C147.99465119 171.02283041 149.59157962 171.02718838 151.18848801 171.03499413 C168.91246988 171.56321736 168.91246988 171.56321736 185.17578125 165.79296875 C185.83578125 165.13296875 186.49578125 164.47296875 187.17578125 163.79296875 C187.17578125 155.13999619 181.60356161 149.08702184 175.86328125 143.10546875 C168.63597355 136.15660004 159.81095347 129.7408505 149.67578125 128.29296875 C145.80435275 128.84602996 142.98699874 130.10386532 139.484375 131.76953125 C129.11452671 136.3666552 117.94635411 135.80511207 107.35546875 132.3515625 C98.57531448 128.04777681 92.7116485 122.76590835 87.42578125 114.60546875 C86.22833262 112.82780964 85.0304017 111.05047532 83.83203125 109.2734375 C83.23003906 108.36770996 82.62804687 107.46198242 82.0078125 106.52880859 C79.04908592 102.11043306 75.98547244 97.76674295 72.92578125 93.41796875 C71.75899247 91.75268972 70.59232279 90.08732724 69.42578125 88.421875 C50.69905315 61.55645234 50.69905315 61.55645234 28.73046875 37.34765625 C27.04034083 35.65752833 25.52476994 33.87352226 23.98828125 32.04296875 C19.18824274 26.47362384 13.6533333 21.67594255 8.17578125 16.79296875 C7.44230469 16.12136719 6.70882812 15.44976562 5.953125 14.7578125 C1.5198227 10.37798763 1.5198227 10.37798763 -3.62109375 12.33984375 Z " fill="#070908" transform="translate(65.82421875,1.20703125)"/>
<path d="M0 0 C5.94394082 1.59614885 10.84416775 4.6555426 16.0625 7.8125 C17.38991211 8.59463867 17.38991211 8.59463867 18.74414062 9.39257812 C23.42099482 12.20290086 27.3683707 14.91536081 31 19 C30.67386719 19.69222656 30.34773438 20.38445312 30.01171875 21.09765625 C22.43517844 38.06106066 22.48538788 54.65242955 22.3125 72.9375 C22.27926484 75.37436661 22.24476965 77.81121638 22.20898438 80.24804688 C22.12479753 86.16524885 22.05615728 92.08246905 22 98 C19.36 98 16.72 98 14 98 C13.99635437 97.34283997 13.99270874 96.68567993 13.98895264 96.00860596 C13.94658779 89.06301623 13.87688096 82.11805468 13.79248047 75.17285156 C13.76454861 72.59348893 13.74319861 70.01404512 13.72900391 67.43457031 C13.60265497 45.75309352 12.87364114 23.33388894 1.31640625 4.21484375 C0 2 0 2 0 0 Z " fill="#40B26B" transform="translate(49,74)"/>
<path d="M0 0 C1.07451416 -0.00630432 2.14902832 -0.01260864 3.25610352 -0.019104 C5.00298462 -0.01303131 5.00298462 -0.01303131 6.78515625 -0.00683594 C7.97616943 -0.00874939 9.16718262 -0.01066284 10.39428711 -0.01263428 C12.91618053 -0.01399724 15.43808094 -0.0102931 17.95996094 -0.00195312 C21.83153974 0.00874453 25.70265447 -0.00184499 29.57421875 -0.01464844 C32.01953228 -0.01332686 34.46484552 -0.01076451 36.91015625 -0.00683594 C38.07474365 -0.0108844 39.23933105 -0.01493286 40.43920898 -0.019104 C42.05098022 -0.00964752 42.05098022 -0.00964752 43.6953125 0 C45.11855835 0.00238678 45.11855835 0.00238678 46.57055664 0.00482178 C48.84765625 0.25878906 48.84765625 0.25878906 50.84765625 2.25878906 C50.29210069 6.81434462 50.29210069 6.81434462 48.84765625 8.25878906 C47.13446679 8.35760499 45.41720822 8.38677876 43.70117188 8.38818359 C42.60333374 8.39133575 41.50549561 8.39448792 40.37438965 8.3977356 C39.17963013 8.39571136 37.98487061 8.39368713 36.75390625 8.39160156 C35.5369104 8.39255829 34.31991455 8.39351501 33.06604004 8.39450073 C30.48689726 8.39518278 27.90775278 8.39332678 25.32861328 8.38916016 C21.36486989 8.38381229 17.40123983 8.38910436 13.4375 8.39550781 C10.93880183 8.39484704 8.44010373 8.39356588 5.94140625 8.39160156 C4.14926697 8.39463791 4.14926697 8.39463791 2.32092285 8.3977356 C1.22308472 8.39458344 0.12524658 8.39143127 -1.00585938 8.38818359 C-2.46360779 8.3869902 -2.46360779 8.3869902 -3.95080566 8.38577271 C-6.15234375 8.25878906 -6.15234375 8.25878906 -7.15234375 7.25878906 C-7.33984375 4.82128906 -7.33984375 4.82128906 -7.15234375 2.25878906 C-4.57675247 -0.31680221 -3.57917695 0.00600227 0 0 Z " fill="#020202" transform="translate(167.15234375,154.7412109375)"/>
<path d="M0 0 C2.4375 0.1875 2.4375 0.1875 3.4375 1.1875 C3.5625 4.1875 3.5625 4.1875 3.4375 7.1875 C2.4375 8.1875 2.4375 8.1875 -0.5625 8.3125 C-3.5625 8.1875 -3.5625 8.1875 -4.5625 7.1875 C-4.75 4.75 -4.75 4.75 -4.5625 2.1875 C-2.5625 0.1875 -2.5625 0.1875 0 0 Z " fill="#0C0C0C" transform="translate(231.5625,154.8125)"/>
<path d="M0 0 C3.77545388 1.09068668 6.47043472 1.9083091 9 5 C8.01 6.485 8.01 6.485 7 8 C7 8.66 7 9.32 7 10 C2.57320993 8.52440331 2.08567304 6.09942632 0 2 C0 1.34 0 0.68 0 0 Z " fill="#42AF6D" transform="translate(49,74)"/>
<path d="M0 0 C0.99 0.33 1.98 0.66 3 1 C3.94921875 4.16015625 3.94921875 4.16015625 4.6875 8.0625 C4.93886719 9.35285156 5.19023438 10.64320312 5.44921875 11.97265625 C5.63097656 12.97167969 5.81273437 13.97070312 6 15 C5.01 15.495 5.01 15.495 4 16 C2.68 10.72 1.36 5.44 0 0 Z " fill="#46A46E" transform="translate(56,88)"/>
<path d="M0 0 C5.75 1.75 5.75 1.75 8 4 C5.92446352 4.5534764 4.15634036 5 2 5 C1.34 3.35 0.68 1.7 0 0 Z " fill="#479467" transform="translate(49,74)"/>
</svg>
