<?xml version="1.0" encoding="UTF-8"?>
<svg version="1.1" xmlns="http://www.w3.org/2000/svg" width="402" height="253">
<path d="M0 0 C132.66 0 265.32 0 402 0 C402 83.49 402 166.98 402 253 C269.34 253 136.68 253 0 253 C0 169.51 0 86.02 0 0 Z " fill="#FEFEFE" transform="translate(0,0)"/>
<path d="M0 0 C3.82990157 2.91529821 7.11151267 6.39275547 10.43359375 9.859375 C12.60416958 12.09051021 14.78638583 14.14545616 17.15625 16.15625 C21.2017028 19.60605331 24.88674032 23.37181593 28.62109375 27.15234375 C31.97608145 30.46493034 35.51000948 33.53400287 39.09375 36.59375 C39.42375 36.92375 39.75375 37.25375 40.09375 37.59375 C55.080584 39.07222139 70.69809491 38.16078499 83.9375 30.421875 C87.09375 28.59375 87.09375 28.59375 89.09375 28.59375 C89.07803955 28.03389404 89.0623291 27.47403809 89.04614258 26.8972168 C88.98375152 24.3586641 88.94474782 21.82027271 88.90625 19.28125 C88.86854492 17.95963867 88.86854492 17.95963867 88.83007812 16.61132812 C88.82041016 15.76376953 88.81074219 14.91621094 88.80078125 14.04296875 C88.7850708 13.26268311 88.76936035 12.48239746 88.75317383 11.6784668 C89.18569303 9.03095317 89.99146723 8.21432331 92.09375 6.59375 C100.16777097 3.62961622 110.520655 2.88689042 118.8359375 5.43359375 C123.80606255 8.2187393 126.21329087 12.33587526 128.09375 17.59375 C128.62788616 20.85411241 128.6518882 24.04048688 128.62719727 27.33935547 C128.63581284 28.28031067 128.64442841 29.22126587 128.65330505 30.19073486 C128.67588628 33.28108751 128.66923968 36.3705274 128.66015625 39.4609375 C128.66539582 41.62273424 128.67167352 43.7845287 128.67893982 45.94631958 C128.68933001 50.47034485 128.68480302 54.99405532 128.67016602 59.51806641 C128.65299309 65.29711104 128.6764631 71.07516 128.71165562 76.85409355 C128.73368642 81.3170116 128.73217412 85.77969358 128.7238903 90.24264908 C128.72307366 92.37236751 128.72988178 94.50210378 128.74466133 96.63177109 C128.8599476 116.25226627 128.8599476 116.25226627 124.22254944 123.61801147 C122.29866871 126.98538139 122.43824867 130.29407474 122.52734375 134.0859375 C122.52170914 134.8391629 122.51607452 135.59238831 122.51026917 136.36843872 C122.49402313 138.73587135 122.50921338 141.10138709 122.53125 143.46875 C122.54788433 145.85734314 122.55692666 148.24471878 122.54151917 150.6333313 C122.53228327 152.10914519 122.54125776 153.5852205 122.57115173 155.0607605 C122.55462509 158.14503599 122.36270818 160.19161149 120.63041019 162.78169346 C116.86562903 165.47105498 113.56323892 165.14504877 109.04063416 165.09495544 C108.11452711 165.10048984 107.18842007 165.10602424 106.23424917 165.11172634 C103.12195983 165.12536903 100.01046752 165.11034218 96.89819336 165.09545898 C94.66870279 165.09924164 92.43921456 165.10474124 90.20973206 165.11183167 C84.13746542 165.12583544 78.06548073 165.11457068 71.99322963 165.09812045 C65.61141543 165.08425551 59.22961741 165.0907337 52.84779358 165.09425354 C42.09630749 165.09696059 31.34495924 165.08354711 20.59350586 165.06030273 C9.60746086 165.03655461 -1.37843595 165.02922869 -12.36450195 165.03979492 C-25.6547261 165.05255469 -38.94484637 165.04977933 -52.235075 165.03413582 C-57.27756813 165.02845018 -62.32001126 165.02839958 -67.36250496 165.03320122 C-112.98626614 165.06534601 -112.98626614 165.06534601 -133.92358398 163.21899414 C-134.95626473 163.12812698 -134.95626473 163.12812698 -136.00980771 163.03542411 C-148.84317772 161.86386961 -161.37892439 159.57022902 -173.90625 156.59375 C-174.64697754 156.42762207 -175.38770508 156.26149414 -176.15087891 156.09033203 C-193.94163849 152.09786758 -213.20340066 144.42825637 -224.3203125 129.25390625 C-230.20099349 119.39000538 -232.25406485 107.68819174 -229.84375 96.46875 C-226.00908462 83.23742711 -217.45235323 74.02829781 -205.65332031 67.28637695 C-199.15870113 64.09712979 -191.8769232 63.10086073 -184.82077026 61.79119873 C-165.60262131 58.19743348 -147.28236569 53.23600206 -128.90625 46.59375 C-128.06497559 46.29823242 -127.22370117 46.00271484 -126.35693359 45.69824219 C-115.77114346 41.93777282 -106.22234687 36.54693538 -96.47729492 30.99804688 C-20.93278586 -12.01061484 -20.93278586 -12.01061484 0 0 Z " fill="#040605" transform="translate(250.90625,39.40625)"/>
<path d="M0 0 C2.42823438 1.74923306 4.36823468 3.85316469 6.375 6.0625 C7.51223419 7.26239977 8.65154991 8.46033024 9.79296875 9.65625 C10.34001465 10.23503906 10.88706055 10.81382813 11.45068359 11.41015625 C13.96671084 13.99199827 16.70985442 16.27326577 19.51171875 18.53515625 C21.20593408 20.20269103 22.05409487 21.83327149 23 24 C1.45514118 51.90337016 -24.7869383 71.86534129 -57 86 C-58.15886719 86.53238281 -59.31773437 87.06476563 -60.51171875 87.61328125 C-67.68976732 90.70626153 -71.68630332 91.51690488 -79 89 C-81.43431212 88.35513062 -83.86838302 87.72992044 -86.3125 87.125 C-86.9926416 86.95371582 -87.6727832 86.78243164 -88.37353516 86.60595703 C-101.66432073 83.29466316 -115.07423445 80.7866536 -128.6706543 79.12670898 C-137.63038564 77.9690957 -145.62610977 75.69522734 -153.375 71 C-153.96410156 70.65710938 -154.55320312 70.31421875 -155.16015625 69.9609375 C-158.23860217 68.14845923 -161.29640518 66.34400339 -164 64 C-164 63.34 -164 62.68 -164 62 C-163.00484375 61.78085938 -162.0096875 61.56171875 -160.984375 61.3359375 C-151.67274232 59.23785915 -142.54300945 56.76330388 -133.42675781 53.93115234 C-132.6169043 53.68059082 -131.80705078 53.4300293 -130.97265625 53.171875 C-130.25343994 52.9459668 -129.53422363 52.72005859 -128.79321289 52.48730469 C-127 52 -127 52 -125 52 C-120.545 59.92 -120.545 59.92 -116 68 C-110.49138377 68.50213552 -110.49138377 68.50213552 -108.0625 66.875 C-106.79813796 64.98739697 -106.79813796 64.98739697 -106.9375 62.4375 C-108.24407777 58.21033661 -110.33645922 54.87749862 -112.72265625 51.171875 C-114 49 -114 49 -114 47 C-111.87717331 45.99539469 -109.75166979 44.99644398 -107.625 44 C-106.44164062 43.443125 -105.25828125 42.88625 -104.0390625 42.3125 C-101 41 -101 41 -99 41 C-97.19931985 43.42649031 -95.52163451 45.84739297 -93.875 48.375 C-93.17310547 49.42300781 -93.17310547 49.42300781 -92.45703125 50.4921875 C-89 55.73316782 -89 55.73316782 -89 58 C-86.03 58 -83.06 58 -80 58 C-79.46676053 51.30488219 -80.63644591 47.90665527 -84.5 42.5 C-84.92925781 41.86835937 -85.35851562 41.23671875 -85.80078125 40.5859375 C-86.85076317 39.04596401 -87.92312994 37.52129262 -89 36 C-86.7360039 33.53282476 -84.40939756 31.89865861 -81.5 30.25 C-80.7265625 29.80140625 -79.953125 29.3528125 -79.15625 28.890625 C-77 28 -77 28 -74 29 C-72.77319336 30.44287109 -72.77319336 30.44287109 -71.58984375 32.2734375 C-71.15736328 32.9334375 -70.72488281 33.5934375 -70.27929688 34.2734375 C-69.83650391 34.96695313 -69.39371094 35.66046875 -68.9375 36.375 C-68.49083984 37.06078125 -68.04417969 37.7465625 -67.58398438 38.453125 C-66.75142141 39.73245942 -65.92219642 41.01397678 -65.09741211 42.29833984 C-64.08026133 43.87554583 -63.04103121 45.43845318 -62 47 C-58.45812169 47.33338596 -58.45812169 47.33338596 -55 47 C-53.67038295 45.87273238 -53.67038295 45.87273238 -53.59375 42.96484375 C-54.13706178 37.6623297 -56.37584801 34.75746084 -59.5 30.5625 C-60.02464844 29.83095703 -60.54929687 29.09941406 -61.08984375 28.34570312 C-62.37895968 26.55266005 -63.6821142 24.77194462 -65 23 C-62.12071475 20.72195761 -59.2169671 18.95965316 -55.9375 17.3125 C-54.65166016 16.65701172 -54.65166016 16.65701172 -53.33984375 15.98828125 C-51 15 -51 15 -48 15 C-46.16796875 17.30859375 -46.16796875 17.30859375 -44.1875 20.4375 C-43.48238281 21.52546875 -42.77726562 22.6134375 -42.05078125 23.734375 C-40.79687984 25.73106371 -39.56051928 27.73907922 -38.35546875 29.765625 C-35.54258557 34.56566028 -35.54258557 34.56566028 -30.8125 37.1875 C-27.79129508 37.22061994 -27.79129508 37.22061994 -25 35 C-24.30770102 31.82696301 -24.55576933 29.8006838 -26.13671875 26.95117188 C-27.69470839 24.66325795 -29.32295207 22.45206969 -31 20.25 C-32.12884951 18.73723996 -33.25404883 17.22174694 -34.375 15.703125 C-34.87773437 15.03958008 -35.38046875 14.37603516 -35.8984375 13.69238281 C-37 12 -37 12 -37 10 C-30.1333035 6.29891359 -23.22376173 4.07980779 -15.6875 2.1875 C-14.82801758 1.96876221 -13.96853516 1.75002441 -13.08300781 1.5246582 C-3.84378658 -0.70962214 -3.84378658 -0.70962214 0 0 Z " fill="#FBFBFB" transform="translate(244,49)"/>
<path d="M0 0 C12.41758662 -0.36883921 12.41758662 -0.36883921 14.67773438 1.0625 C16.66803574 3.97886478 16.36994955 6.88996657 16.29296875 10.29296875 C16.28872391 10.99899734 16.28447906 11.70502594 16.28010559 12.43244934 C16.26333034 14.68452303 16.22568243 16.93569742 16.1875 19.1875 C16.17245157 20.71548185 16.15876344 22.24347776 16.14648438 23.77148438 C16.11343089 27.51466872 16.06165832 31.25718196 16 35 C12.25451961 36.42491102 8.52873381 37.82753207 4.71875 39.0703125 C-9.48339797 43.72392895 -21.94313414 50.90460073 -33 61 C-33.85078125 61.75796875 -34.7015625 62.5159375 -35.578125 63.296875 C-48.45238759 75.38130553 -55.33481956 90.58057874 -61 107 C-107.20858115 110.65640255 -107.20858115 110.65640255 -130.06005859 100.25341797 C-136.39827291 97.55117646 -143.03679507 95.63502598 -149.60205078 93.56445312 C-150.55708496 93.25572266 -151.51211914 92.94699219 -152.49609375 92.62890625 C-153.34357178 92.36150635 -154.1910498 92.09410645 -155.06420898 91.81860352 C-157 91 -157 91 -158 89 C-157.00742188 88.5153125 -156.01484375 88.030625 -154.9921875 87.53125 C-131.90130584 76.17615795 -111.74929762 62.65736409 -93 45 C-92.34 44.38253906 -91.68 43.76507813 -91 43.12890625 C-86.58880122 38.87087409 -82.81054358 34.16546171 -79.015625 29.35546875 C-77 27 -77 27 -74 25 C-73.25496216 25.85428589 -73.25496216 25.85428589 -72.49487305 26.72583008 C-68.15652036 31.18519407 -65.03139109 33.53933104 -58.70703125 33.88671875 C-56.40798525 33.86634242 -54.10896443 33.79830977 -51.8125 33.6875 C-50.01111572 33.63952271 -50.01111572 33.63952271 -48.17333984 33.59057617 C-39.82979969 33.29004573 -31.97411582 32.59574083 -24 30 C-22.865625 29.63648437 -21.73125 29.27296875 -20.5625 28.8984375 C-14.46710202 26.75119503 -9.42492957 24.33339837 -4.48828125 20.13671875 C-3 19 -3 19 -1 19 C-0.67 12.73 -0.34 6.46 0 0 Z " fill="#FCFCFC" transform="translate(351,56)"/>
<path d="M0 0 C0.77899658 0.14099121 1.55799316 0.28198242 2.3605957 0.42724609 C6.01000195 1.08354259 9.66121027 1.72926769 13.3125 2.375 C14.53646484 2.59671875 15.76042969 2.8184375 17.02148438 3.046875 C33.39884684 5.92455109 49.8861087 7.31723019 66.484375 8.109375 C67.3432708 8.15124687 68.2021666 8.19311874 69.08708954 8.23625946 C91.66040651 9.3086092 114.2379027 9.31203275 136.83184052 9.25754547 C140.30531457 9.24987789 143.77877746 9.24583021 147.2522583 9.24261475 C196.5512455 9.1888334 245.7594023 8.09521601 294.99951172 5.60986328 C302.67304802 5.22308084 310.31351303 4.89097182 318 5 C318 11.27 318 17.54 318 24 C288.10576837 24.06805847 258.2115454 24.12165727 228.31725291 24.15319599 C224.77440871 24.15694735 221.23156467 24.16083039 217.6887207 24.16479492 C216.98351215 24.16558185 216.27830359 24.16636878 215.55172508 24.16717956 C204.18750311 24.1801735 192.82332745 24.20379351 181.4591328 24.23145839 C169.76677666 24.25968116 158.07444449 24.27621156 146.3820557 24.28226548 C139.82795143 24.28615157 133.27395161 24.29518303 126.71988106 24.31719017 C120.53029431 24.33780184 114.3408534 24.34378482 108.15123558 24.33932304 C105.89931059 24.34013736 103.64737987 24.34595403 101.39548492 24.35761642 C81.48063044 24.45555129 61.66428885 22.90599002 42.1875 18.5625 C41.19379395 18.3464209 40.20008789 18.1303418 39.17626953 17.90771484 C25.36612492 14.8304667 9.85842783 10.74292229 0 0 Z " fill="#05C169" transform="translate(43,167)"/>
<path d="M0 0 C0.63292969 0.6496875 1.26585937 1.299375 1.91796875 1.96875 C16.08058388 15.11468324 34.74948224 20.77886056 53.54296875 22.84375 C72.01532258 25.04097611 89.31638933 30.13369338 107.10546875 35.46875 C108.32105469 35.8296875 109.53664062 36.190625 110.7890625 36.5625 C120.96763106 39.63327751 131.0296578 43.07918489 141.10546875 46.46875 C141.10546875 46.79875 141.10546875 47.12875 141.10546875 47.46875 C40.08801988 48.05558495 40.08801988 48.05558495 0.10546875 42.46875 C-0.79751953 42.34886719 -1.70050781 42.22898438 -2.63085938 42.10546875 C-13.99514777 40.5835405 -25.64061043 38.9229632 -35.89453125 33.46875 C-36.3871186 23.72646691 -36.52170393 16.90894001 -30.09375 9.3515625 C-23.40913829 2.2645761 -9.55650694 -7.7240221 0 0 Z " fill="#FAFAFA" transform="translate(68.89453125,117.53125)"/>
<path d="M0 0 C0.10158627 6.86836079 0.17154375 13.73652717 0.21972656 20.60546875 C0.23981709 22.94115438 0.26709461 25.27678987 0.30175781 27.61230469 C0.35038691 30.97343331 0.37299492 34.33389575 0.390625 37.6953125 C0.41127014 38.73615997 0.43191528 39.77700745 0.45318604 40.84939575 C0.45503557 46.85218627 0.1342724 50.49709608 -4 55 C-6.84607224 55.94869075 -8.95712576 56.21679281 -11.92700195 56.38891602 C-13.42920036 56.4788961 -13.42920036 56.4788961 -14.96174622 56.57069397 C-16.58363106 56.66138405 -16.58363106 56.66138405 -18.23828125 56.75390625 C-19.90856636 56.85166603 -19.90856636 56.85166603 -21.6125946 56.95140076 C-23.97037791 57.08859119 -26.32827742 57.22379678 -28.6862793 57.35717773 C-32.28787192 57.56110552 -35.88906139 57.77122601 -39.49023438 57.98242188 C-41.78122884 58.11494964 -44.07224386 58.2471227 -46.36328125 58.37890625 C-47.43846512 58.44139053 -48.51364899 58.50387482 -49.62141418 58.56825256 C-54.4205632 58.83806321 -59.19081338 59.08214209 -64 59 C-63.43557534 53.7483966 -61.68954552 49.75372406 -59.3125 45.125 C-58.95236816 44.41609619 -58.59223633 43.70719238 -58.22119141 42.97680664 C-55.59138019 37.90569487 -52.71290526 33.35413123 -49 29 C-48.58878906 28.44699219 -48.17757813 27.89398438 -47.75390625 27.32421875 C-38.08344318 14.84157354 -16.39671348 0 0 0 Z " fill="#FBFBFB" transform="translate(367,104)"/>
<path d="M0 0 C14.355 2.475 14.355 2.475 29 5 C29 5.33 29 5.66 29 6 C24.38 6.33 19.76 6.66 15 7 C18.465 8.485 18.465 8.485 22 10 C22 10.66 22 11.32 22 12 C22.89976563 12.11472656 23.79953125 12.22945312 24.7265625 12.34765625 C30.31877802 13.14916019 35.84194596 14.30648836 41.375 15.4375 C42.47972656 15.65470703 43.58445313 15.87191406 44.72265625 16.09570312 C45.77066406 16.31033203 46.81867188 16.52496094 47.8984375 16.74609375 C49.33195557 17.03504517 49.33195557 17.03504517 50.79443359 17.32983398 C51.52227051 17.55098877 52.25010742 17.77214355 53 18 C53.495 18.99 53.495 18.99 54 20 C36.13637509 18.70082728 16.69137288 13.4022808 2 3 C1.34 2.01 0.68 1.02 0 0 Z " fill="#17A865" transform="translate(43,167)"/>
<path d="M0 0 C1.02802734 0.04833984 2.05605469 0.09667969 3.11523438 0.14648438 C4.18708984 0.20255859 5.25894531 0.25863281 6.36328125 0.31640625 C7.44673828 0.36861328 8.53019531 0.42082031 9.64648438 0.47460938 C12.32320716 0.60431841 14.99956013 0.73928558 17.67578125 0.87890625 C17.67578125 1.20890625 17.67578125 1.53890625 17.67578125 1.87890625 C4.66110275 2.59766561 -8.28954797 3.02214439 -21.32421875 2.87890625 C-21.32421875 2.54890625 -21.32421875 2.21890625 -21.32421875 1.87890625 C-19.96876953 1.78802734 -19.96876953 1.78802734 -18.5859375 1.6953125 C-16.81669922 1.56962891 -16.81669922 1.56962891 -15.01171875 1.44140625 C-13.25408203 1.31958984 -13.25408203 1.31958984 -11.4609375 1.1953125 C-7.37904503 0.78356494 -4.16182128 -0.20694139 0 0 Z " fill="#003011" transform="translate(333.32421875,171.12109375)"/>
</svg>
